<svg width="24" height="24" viewBox="0 0 24 24" fill="none" xmlns="http://www.w3.org/2000/svg">
<path d="M12 10.6545C12.3569 10.6545 12.6991 10.7962 12.9514 11.0486C13.2038 11.3009 13.3455 11.6431 13.3455 12C13.3455 12.3569 13.2038 12.6991 12.9514 12.9514C12.6991 13.2038 12.3569 13.3455 12 13.3455C11.6431 13.3455 11.3009 13.2038 11.0486 12.9514C10.7962 12.6991 10.6545 12.3569 10.6545 12C10.6545 11.6431 10.7962 11.3009 11.0486 11.0486C11.3009 10.7962 11.6431 10.6545 12 10.6545V10.6545ZM1.53167 1.53167C3.4558 -0.392455 7.62698 0.468693 12 3.3347C16.373 0.468693 20.5442 -0.392455 22.4683 1.53167C24.3925 3.4558 23.5313 7.62698 20.6653 12C23.5313 16.373 24.3925 20.5442 22.4683 22.4683C20.5442 24.3925 16.373 23.5313 12 20.6653C7.62698 23.5313 3.4558 24.3925 1.53167 22.4683C-0.392455 20.5442 0.468693 16.373 3.3347 12C0.468693 7.62698 -0.392455 3.4558 1.53167 1.53167ZM16.7632 7.23678C17.584 8.07101 18.3375 8.91871 19.0372 9.7664C20.894 6.90039 21.5668 4.43805 20.5577 3.44234C19.562 2.43319 17.0996 3.10596 14.2336 4.96281C15.0813 5.66249 15.929 6.41599 16.7632 7.23678V7.23678ZM7.23678 16.7632C6.41599 15.929 5.66249 15.0813 4.96281 14.2336C3.10596 17.0996 2.43319 19.562 3.44234 20.5577C4.43805 21.5668 6.90039 20.894 9.7664 19.0372C8.91871 18.3375 8.07101 17.584 7.23678 16.7632V16.7632ZM3.44234 3.44234C2.43319 4.43805 3.10596 6.90039 4.96281 9.7664C5.66249 8.91871 6.41599 8.07101 7.23678 7.23678C8.07101 6.41599 8.91871 5.66249 9.7664 4.96281C6.90039 3.10596 4.43805 2.43319 3.44234 3.44234V3.44234ZM9.14745 14.8526C10.0893 15.7944 11.0581 16.6556 12 17.4225C12.9419 16.6556 13.9107 15.7944 14.8526 14.8526C15.7944 13.9107 16.6556 12.9419 17.4225 12C16.6556 11.0581 15.7944 10.0893 14.8526 9.14745C13.9107 8.20557 12.9419 7.34442 12 6.57746C11.0581 7.34442 10.0893 8.20557 9.14745 9.14745C8.20557 10.0893 7.34442 11.0581 6.57746 12C7.34442 12.9419 8.20557 13.9107 9.14745 14.8526ZM20.5577 20.5577C21.5668 19.562 20.894 17.0996 19.0372 14.2336C18.3375 15.0813 17.584 15.929 16.7632 16.7632C15.929 17.584 15.0813 18.3375 14.2336 19.0372C17.0996 20.894 19.562 21.5668 20.5577 20.5577Z" fill="black"/>
</svg>
