<svg width="16" height="16" viewBox="0 0 16 16" fill="none" xmlns="http://www.w3.org/2000/svg">
<path d="M10.544 9.04721C9.96961 9.04721 9.50401 9.69281 9.50401 10.4864C9.50401 11.2816 9.96961 11.9272 10.544 11.9272C11.1184 11.9272 11.584 11.2816 11.584 10.4864C11.5832 9.69281 11.1184 9.04721 10.544 9.04721ZM14.1648 5.30081C14.284 5.00881 14.2888 3.34961 13.6568 1.76001C13.6568 1.76001 12.208 1.91921 10.016 3.42401C9.55602 3.29601 8.77761 3.23361 8.00081 3.23361C7.22241 3.23361 6.44481 3.29601 5.98481 3.42401C3.79201 1.91921 2.34321 1.76001 2.34321 1.76001C1.71201 3.34961 1.71841 5.00881 1.83601 5.30081C1.09361 6.10721 0.640015 7.07601 0.640015 8.39761C0.640015 14.1464 5.41041 14.2384 6.61361 14.2384L8.00081 14.24L9.38641 14.2384C10.5912 14.2384 15.36 14.1464 15.36 8.39761C15.36 7.07601 14.9072 6.10721 14.1648 5.30081ZM8.02241 13.532H7.97761C4.96081 13.532 2.61041 13.1728 2.61041 10.24C2.61041 9.53681 2.85841 8.88561 3.44801 8.34481C4.42961 7.44321 6.09201 7.92001 7.97761 7.92001H8.02241C9.90801 7.92001 11.5712 7.44321 12.5536 8.34481C13.1416 8.88561 13.3896 9.53681 13.3896 10.24C13.3896 13.1728 11.04 13.532 8.02241 13.532ZM5.45681 9.04721C4.88241 9.04721 4.41681 9.69281 4.41681 10.4864C4.41681 11.2816 4.88241 11.9272 5.45681 11.9272C6.03201 11.9272 6.49761 11.2816 6.49761 10.4864C6.49761 9.69281 6.03201 9.04721 5.45681 9.04721Z" fill="#5EDFFC"/>
</svg>
