<svg width="32" height="32" viewBox="0 0 32 32" fill="none" xmlns="http://www.w3.org/2000/svg">
<path d="M22.154 1C22.12 0.99935 22.087 1.01108 22.061 1.033L18.346 5.445L17.588 8.051C17.0575 8.03428 16.5268 8.02628 15.996 8.027C12.136 8.027 9 8.437 9 8.943C9 10.153 22.99 10.153 22.99 8.943C22.99 8.568 21.315 8.252 18.9 8.102L19.5 5.957L22.975 1.777L22.98 1.771C23.058 1.691 22.906 1.447 22.658 1.234C22.472 1.074 22.277 0.995002 22.154 1V1ZM17.303 9.076L17.289 9.117C17.283 9.122 17.283 9.129 17.283 9.135C17.283 9.21 17.586 9.271 17.955 9.271C18.325 9.271 18.629 9.21 18.629 9.135L18.641 9.088C18.738 9.123 18.791 9.163 18.791 9.209C18.791 9.33 18.416 9.429 17.949 9.424C17.495 9.424 17.119 9.332 17.119 9.211C17.119 9.159 17.194 9.111 17.303 9.076V9.076ZM22.913 9.42C21.061 10.407 10.95 10.414 9.092 9.434L9.914 16.666C10.271 15.513 11.174 13.956 12.336 13.484C12.716 13.328 13.104 13.329 13.466 13.537C13.782 13.71 14.048 14.073 14.078 14.217C14.151 14.592 13.958 14.74 13.807 14.74C13.625 14.74 13.486 14.476 13.395 14.32C13.147 13.9 12.771 13.881 12.371 14.158C11.953 14.446 11.59 14.931 11.336 15.352C11.0217 15.8585 10.7772 16.4051 10.609 16.977C10.519 17.3 10.435 17.817 10.574 18.123C10.635 18.25 10.725 18.33 10.871 18.33C11.174 18.33 11.614 17.95 11.826 17.748C12.098 17.489 12.449 17.085 12.582 16.826L12.898 15.934C13.055 15.542 13.496 15.611 13.496 15.934C13.496 16.522 13.274 16.718 12.893 17.934C12.542 19.058 12.432 19.422 12.432 19.422C12.39 19.582 12.226 19.854 12.051 19.854C11.978 19.854 11.925 19.829 11.895 19.784C11.834 19.702 11.84 19.48 11.845 19.422C11.858 19.238 12.226 18.142 12.287 17.969C12.1627 18.1004 12.0336 18.2271 11.9 18.349C11.573 18.644 11.048 19.029 10.6 19.029C10.4341 19.0349 10.2708 18.9864 10.135 18.891L10.594 23.479C10.714 23.767 12.967 24.465 15.932 24.465C18.902 24.465 21.152 23.762 21.268 23.479L21.928 18.027C21.583 18.327 21.184 18.697 20.742 18.881C20.415 19.014 19.689 19.099 19.689 18.551C19.689 18.251 20.241 17.699 20.561 17.313C20.646 17.215 20.844 16.973 20.844 16.846C20.844 16.679 20.482 16.717 20.137 16.988C19.9402 17.1539 19.7631 17.3418 19.609 17.548C19.349 17.895 19.211 18.193 19.096 18.441C18.721 19.259 18.848 18.937 18.545 19.709C18.242 20.476 18.291 20.389 18.23 20.516C18.1794 20.6264 18.0945 20.7176 17.988 20.776C17.93 20.8046 17.8657 20.818 17.8012 20.8149C17.7366 20.8117 17.6739 20.7921 17.619 20.758C17.565 20.723 17.539 20.648 17.539 20.545C17.539 20.493 17.547 20.441 17.559 20.389C17.649 20.037 18.031 19.346 18.467 18.412C18.564 18.199 18.527 18.262 18.514 18.279C18.139 18.625 17.854 18.793 17.643 18.885C17.292 19.035 16.856 19.035 16.766 18.648C16.76 18.625 16.76 18.601 16.754 18.578C16.04 19.108 15.284 19.252 15.544 18.111C15.267 18.584 14.781 18.971 14.187 18.971C13.94 18.971 13.758 18.891 13.668 18.678C13.529 18.361 13.746 17.818 13.945 17.305C14.048 17.045 14.189 16.735 14.377 16.371C14.474 16.175 14.63 16.059 14.836 16.111C14.8699 16.1214 14.9028 16.1351 14.934 16.152C15.091 16.256 15.03 16.41 14.951 16.566C14.721 16.998 14.521 17.316 14.389 17.766C14.335 17.956 14.267 18.286 14.479 18.286C14.6291 18.2834 14.7748 18.2346 14.896 18.146C15.174 17.95 15.398 17.657 15.568 17.369C15.7052 17.1449 15.8192 16.9073 15.908 16.66C15.938 16.562 15.976 16.47 16.018 16.383C16.085 16.239 16.174 16.09 16.332 16.09C16.411 16.09 16.476 16.119 16.525 16.176C16.628 16.303 16.605 16.433 16.551 16.572C16.43 16.895 16.267 17.184 16.133 17.535C16.053 17.737 15.969 17.996 15.969 18.209C15.969 18.405 16.193 18.359 16.381 18.277C16.526 18.214 16.671 18.117 16.793 18.02C16.866 17.738 16.847 17.8 18.391 14.088C18.47 13.898 18.615 13.816 18.76 13.816C18.8295 13.8174 18.8968 13.8401 18.953 13.881C19.056 13.956 19.058 14.115 19.016 14.236C18.974 14.346 18.978 14.312 18.742 14.842C18.427 15.539 18.222 16.042 17.943 16.682C17.828 16.947 17.478 17.771 17.418 17.967C17.382 18.094 17.338 18.301 17.478 18.301C17.806 18.301 18.647 17.545 18.877 17.321C18.889 17.303 18.907 17.297 18.932 17.285C18.968 17.175 19.003 17.073 19.033 16.969C19.118 16.749 19.197 16.494 19.355 16.316C19.403 16.258 19.458 16.225 19.518 16.225C19.687 16.225 19.771 16.293 19.771 16.455C19.771 16.518 19.731 16.75 19.705 16.813C19.79 16.727 19.88 16.641 19.977 16.555C20.885 15.754 21.531 16.162 21.531 16.566C21.531 16.992 20.993 17.586 20.697 17.914C20.6 18.024 20.401 18.225 20.395 18.284C20.395 18.358 20.448 18.389 20.527 18.389C20.648 18.389 20.915 18.186 21.012 18.117C21.315 17.892 21.725 17.547 22.016 17.305L22.912 9.42H22.913ZM10.93 24.03L11.832 25.495L12.184 30.071C12.184 30.584 13.896 30.999 16.002 30.999C18.108 30.999 19.82 30.584 19.82 30.071L20.1 25.448L20.951 24.03C18.554 24.993 13.424 25.027 10.93 24.03Z" fill="black"/>
</svg>
