<svg width="6" height="10" viewBox="0 0 6 10" fill="none" xmlns="http://www.w3.org/2000/svg">
<path d="M3.78073 2.79174C4.39438 2.79174 4.89184 2.29428 4.89184 1.68063C4.89184 1.06698 4.39438 0.569519 3.78073 0.569519C3.16708 0.569519 2.66962 1.06698 2.66962 1.68063C2.66962 2.29428 3.16708 2.79174 3.78073 2.79174Z" fill="#515151"/>
<path d="M4.91685 7.30008C4.88615 7.27943 4.85164 7.26512 4.81534 7.25799C4.77904 7.25086 4.74168 7.25106 4.70546 7.25856C4.66923 7.26606 4.63487 7.28073 4.60439 7.30169C4.57391 7.32265 4.54793 7.34949 4.52796 7.38064C4.25943 7.77832 3.93047 8.13164 3.55296 8.42786C3.46129 8.4973 3.11963 8.76119 2.97518 8.70564C2.87518 8.67508 2.93351 8.47786 2.95296 8.39453L3.10018 7.95842C3.16129 7.78064 4.22518 4.62508 4.34185 4.26397C4.51407 3.73619 4.43907 3.21675 3.65296 3.34175C3.43907 3.36397 1.26963 3.64453 1.23074 3.6473C1.19426 3.64967 1.1586 3.65921 1.12581 3.67536C1.09302 3.69151 1.06372 3.71396 1.03961 3.74143C1.01549 3.7689 0.997019 3.80085 0.98525 3.83546C0.973481 3.87007 0.968644 3.90666 0.971015 3.94314C0.973386 3.97962 0.982919 4.01527 0.999069 4.04806C1.01522 4.08086 1.03767 4.11015 1.06514 4.13427C1.09261 4.15838 1.12456 4.17686 1.15917 4.18862C1.19378 4.20039 1.23037 4.20523 1.26685 4.20286C1.26685 4.20286 2.10018 4.09453 2.19185 4.08619C2.2388 4.08161 2.28608 4.09071 2.32797 4.1124C2.36987 4.13408 2.40459 4.16743 2.42796 4.20841C2.47829 4.36401 2.4714 4.53246 2.40851 4.68341C2.33629 4.96119 1.19463 8.17786 1.15851 8.36397C1.11978 8.51971 1.13054 8.68365 1.18928 8.833C1.24802 8.98235 1.35184 9.10968 1.48629 9.19731C1.73866 9.36551 2.03914 9.44648 2.34185 9.42786C2.63617 9.42426 2.92725 9.36586 3.20018 9.25564C3.89185 8.97786 4.61407 8.23897 4.99463 7.65842C5.0274 7.59943 5.03757 7.53053 5.02326 7.46459C5.00895 7.39865 4.97112 7.34017 4.91685 7.30008Z" fill="#515151"/>
</svg>
