<svg width="25" height="24" viewBox="0 0 25 24" fill="none" xmlns="http://www.w3.org/2000/svg">
<path d="M12.2659 3.5625H13.6722C13.7972 3.5625 13.8597 3.625 13.8597 3.75V20.25C13.8597 20.375 13.7972 20.4375 13.6722 20.4375H12.2659C12.1409 20.4375 12.0784 20.375 12.0784 20.25V3.75C12.0784 3.625 12.1409 3.5625 12.2659 3.5625Z" fill="white"/>
<path d="M5.09406 11.1094H20.8441C20.9691 11.1094 21.0316 11.1719 21.0316 11.2969V12.7031C21.0316 12.8281 20.9691 12.8906 20.8441 12.8906H5.09406C4.96906 12.8906 4.90656 12.8281 4.90656 12.7031V11.2969C4.90656 11.1719 4.96906 11.1094 5.09406 11.1094Z" fill="white"/>
</svg>
