<svg height="512pt" viewBox="0 0 512 512.0009" width="512pt" xmlns="http://www.w3.org/2000/svg"><path d="m123.960938 229.902344c4.921874-12.632813 10.269531-24.847656 16.027343-36.59375 11.785157-24.039063 25.324219-46.140625 40.449219-66.117188-44.597656-3.628906-87.34375 10.152344-125.117188 40.648438-34.476562 27.835937-52.570312 59.753906-53.324218 61.097656-2.628906 4.695312-2.664063 10.40625-.089844 15.128906 2.574219 4.726563 7.394531 7.792969 12.761719 8.128906l81.882812 5.109376zm0 0"/><path d="m318.695312 372.011719c-11.75 5.761719-23.964843 11.109375-36.59375 16.03125l-27.40625 27.40625 5.109376 81.882812c.335937 5.367188 3.40625 10.1875 8.128906 12.761719 2.335937 1.273438 4.910156 1.90625 7.484375 1.90625 2.636719 0 5.273437-.664062 7.648437-1.996094 1.34375-.753906 33.257813-18.847656 61.097656-53.324218 30.5-37.769532 44.277344-80.519532 40.648438-125.117188-19.980469 15.125-42.082031 28.667969-66.117188 40.449219zm0 0"/><path d="m423.984375 12.882812c-17.511719 4.367188-37.371094 10.273438-58.1875 18.199219l115.109375 115.109375c18.785156-49.585937 27.191406-96.730468 30.941406-127.804687 1.273438-10.566407-7.6875-19.527344-18.257812-18.269531-18.519532 2.214843-42.710938 6.066406-69.605469 12.765624zm0 0"/><path d="m233.859375 113.273438c-36.089844 36.089843-60.96875 79.382812-78.121094 121.605468l121.390625 121.390625c41.128906-16.78125 85.0625-41.589843 121.597656-78.128906 30.183594-30.179687 52.523438-65.402344 69.0625-100.824219l-133.082031-133.078125c-34.816406 16.300781-70.402343 38.589844-100.847656 69.035157zm149.050781 111.496093c-13.191406 13.191407-30.515625 19.785157-47.839844 19.785157-17.324218 0-34.652343-6.59375-47.839843-19.785157-26.375-26.378906-26.375-69.296875 0-95.675781 26.378906-26.378906 69.300781-26.378906 95.679687 0 26.375 26.378906 26.375 69.296875 0 95.675781zm0 0"/><path d="m309.355469 202.648438c14.179687 14.179687 37.253906 14.175781 51.429687 0 14.179688-14.179688 14.179688-37.253907 0-51.433594-7.089844-7.085938-16.402344-10.632813-25.714844-10.632813-9.316406 0-18.625 3.542969-25.714843 10.636719-14.179688 14.175781-14.179688 37.25 0 51.429688zm0 0"/><path d="m87.277344 317.902344c-.554688.539062-1.121094 1.070312-1.664063 1.617187-57.453125 57.449219-59.234375 146.546875-59.28125 150.3125-.054687 4.214844 1.597657 8.277344 4.582031 11.257813 2.933594 2.9375 6.914063 4.582031 11.058594 4.582031h.199219c3.765625-.046875 92.859375-1.828125 150.3125-59.28125.542969-.542969 1.074219-1.113281 1.617187-1.667969zm0 0"/><path d="m219.761719 406.136719 31.496093-31.496094-113.898437-113.894531-31.496094 31.496094 15.351563 15.347656 83.195312 83.199218zm0 0"/></svg>