<svg width="24" height="24" viewBox="0 0 24 24" fill="none" xmlns="http://www.w3.org/2000/svg">
<path d="M20.953 0.00400074C20.8925 -0.00425241 20.8309 0.00156511 20.773 0.0210007L3.225 5.585C3.05 5.64 2.902 5.799 2.823 5.983C2.78309 6.0494 2.76233 6.12554 2.763 6.203V11.929C2.76233 12.0065 2.78309 12.0826 2.823 12.149C2.902 12.332 3.05 12.49 3.225 12.546L10.679 14.91L3.225 17.273C2.97 17.353 2.762 17.647 2.762 17.928V23.616C2.762 23.898 2.97 24.06 3.225 23.979L20.775 18.414C21.012 18.339 21.201 18.078 21.227 17.814C21.23 17.792 21.24 17.774 21.24 17.749V12.06C21.24 11.779 21.032 11.485 20.777 11.404L13.4 9.065L20.775 6.726C21.03 6.646 21.237 6.351 21.237 6.07V0.384001C21.237 0.173001 21.12 0.0290007 20.954 0.00400074H20.953Z" fill="black"/>
</svg>
