<svg width="16" height="16" viewBox="0 0 16 16" fill="none" xmlns="http://www.w3.org/2000/svg">
<path d="M13.8528 4.99689C13.8592 5.12649 13.8616 5.25769 13.8616 5.38729C13.8616 9.37929 10.824 13.9809 5.26961 13.9809C3.56321 13.9809 1.97681 13.4809 0.640015 12.6233C1.43072 12.7189 2.23251 12.6578 2.99957 12.4434C3.76662 12.2289 4.4839 11.8655 5.11041 11.3737C4.48035 11.3618 3.86975 11.1533 3.364 10.7773C2.85824 10.4014 2.48261 9.87679 2.28961 9.27689C2.74246 9.36158 3.20853 9.34381 3.65361 9.22489C2.9701 9.08629 2.35553 8.71564 1.91405 8.17574C1.47257 7.63584 1.23133 6.95991 1.23121 6.26249V6.22489C1.65057 6.45817 2.11959 6.5879 2.59921 6.60329C1.95911 6.17656 1.506 5.52163 1.33235 4.77217C1.1587 4.02272 1.27761 3.23525 1.66481 2.57049C2.42305 3.50366 3.3691 4.26689 4.44152 4.81061C5.51394 5.35433 6.68874 5.66638 7.88962 5.72649C7.83766 5.50059 7.81163 5.26949 7.81202 5.03769C7.81202 4.64124 7.89011 4.24868 8.04185 3.88241C8.19359 3.51615 8.416 3.18337 8.69637 2.90308C8.97674 2.62278 9.30958 2.40047 9.67588 2.24882C10.0422 2.09718 10.4348 2.01919 10.8312 2.01929C11.2444 2.01862 11.6533 2.10284 12.0326 2.26674C12.4118 2.43064 12.7534 2.67072 13.036 2.97209C13.7121 2.83825 14.3606 2.59045 14.9536 2.23929C14.7281 2.93865 14.2561 3.53227 13.6256 3.90969C14.2242 3.83873 14.8088 3.67855 15.36 3.43449C14.9551 4.04124 14.4446 4.57042 13.8528 4.99689Z" fill="#5EDFFC"/>
</svg>
