<svg width="24" height="24" viewBox="0 0 24 24" fill="none" xmlns="http://www.w3.org/2000/svg">
<path d="M4.64999 19.351H19.35V4.64999H4.64999V19.351ZM11.55 17.625H5.92599V16.68H11.551L11.55 17.625ZM15.675 6.32499C16.5056 6.33244 17.3102 6.61599 17.962 7.13099L17.954 7.12499L17.254 8.17499C16.8068 7.81681 16.259 7.60706 15.687 7.57499H15.68C15.18 7.57499 14.88 7.79999 14.88 8.14499C14.88 8.54499 15.151 8.69999 16.199 8.95499C17.43 9.29999 18.15 9.75499 18.15 10.83C18.1483 11.1127 18.086 11.3919 17.9674 11.6485C17.8488 11.9052 17.6766 12.1335 17.4624 12.3181C17.2482 12.5026 16.9969 12.6392 16.7255 12.7185C16.4541 12.7978 16.1689 12.8181 15.889 12.778L15.9 12.779C14.9343 12.7467 14.0074 12.391 13.268 11.769L13.275 11.774L14.054 10.798C14.5587 11.2593 15.2116 11.5253 15.895 11.548H15.9C16.455 11.548 16.8 11.323 16.8 10.948C16.8 10.602 16.573 10.423 15.57 10.148C14.324 9.81799 13.53 9.47199 13.53 8.24799V8.20399C13.5364 7.93543 13.5988 7.67115 13.713 7.42802C13.8273 7.18489 13.991 6.96825 14.1937 6.79192C14.3964 6.61559 14.6336 6.48345 14.8902 6.40391C15.1468 6.32438 15.4171 6.2992 15.684 6.32999L15.675 6.32899V6.32499ZM7.04999 6.44499L7.99399 10.045L9.04399 6.44499H10.1L11.151 10.045L12.08 6.44499H13.551L11.751 12.67H10.575L9.57499 9.06999L8.55499 12.67H7.39999L5.59499 6.44999L7.04999 6.44499Z" fill="black"/>
<path d="M24 8.13L22.081 3.375L20.88 0.5L15.3 0L14.43 0.84L13.32 0.42L9.8 2.3L6 0.045L0 2.505L3.225 21.676L16.5 24L17.34 19.74L17.49 19.649H4.35V4.35H19.65V18.375L24 15.8L21.375 10.88L24 8.13Z" fill="black"/>
</svg>
