<svg width="140" height="70" viewBox="0 0 140 70" fill="none" xmlns="http://www.w3.org/2000/svg">
<path fill-rule="evenodd" clip-rule="evenodd" d="M20 20.076C20 20.1438 21.4784 21.4337 23.2856 22.9419L26.5712 25.6844H35.7532C45.6025 25.6844 46.4286 25.7931 47.4283 27.2205C48.1796 28.2931 48.0533 29.9802 47.1407 31.0648L46.3635 31.9885H40.5364C37.21 31.9885 34.7094 32.1065 34.7094 32.2635C34.7094 32.4144 36.2035 33.7836 38.0298 35.3059L41.3503 38.0734L43.9947 37.9227C48.2949 37.6774 51.1602 35.9504 52.7795 32.627C53.3075 31.5433 53.4516 30.743 53.4345 28.9866C53.3997 25.3605 51.9182 22.8689 48.7896 21.1732L46.8672 20.1309L33.4336 20.0414C26.045 19.9922 20 20.0078 20 20.076ZM62.2286 20.411C59.4485 21.1581 56.6937 23.7941 55.9999 26.3704C55.4947 28.2469 55.6229 30.9252 56.2899 32.4331C57.1272 34.3264 59.0895 36.3139 60.9081 37.1113C62.0371 37.6063 63.2379 37.8356 65.1888 37.9287L67.9007 38.0584L71.2401 35.2486L74.5794 32.4388L68.964 32.2887C62.5847 32.1182 62.0053 31.9374 61.4043 29.9316C61.1173 28.973 61.141 28.596 61.5421 27.7513C62.4526 25.8321 62.394 25.8423 72.9464 25.7571C81.504 25.688 82.5879 25.6247 83.2069 25.1567C85.1612 23.6801 89.0154 20.4026 89.0289 20.2059C89.0373 20.0823 83.3369 19.9898 76.3611 20.0009C66.966 20.0159 63.3021 20.1222 62.2286 20.411ZM77.1133 32.2851C75.2681 32.4364 75.1894 32.4802 72.0101 35.1405L68.7812 37.8422L74.8526 37.9923C80.4731 38.1313 80.9699 38.1883 81.5415 38.7608C82.3007 39.5209 82.5957 41.165 82.1716 42.2701C81.9972 42.7239 81.4121 43.3652 80.8714 43.6948C79.9451 44.2594 79.3417 44.2948 70.4323 44.3075L60.9762 44.321L57.8242 47.0086C56.0906 48.4867 54.6046 49.6968 54.5221 49.6977C54.4395 49.6986 50.1168 46.1047 44.9159 41.7117C39.7151 37.3184 35.0369 33.3973 34.52 32.9977C33.6125 32.2968 33.4312 32.2746 29.2861 32.3553L24.9922 32.4388L32.3025 38.7428C36.3232 42.21 40.9054 46.1614 42.485 47.5234L45.3572 50L62.7729 49.9982C74.3453 49.9973 80.5914 49.8874 81.3893 49.671C83.1733 49.1874 85.3539 47.6843 86.3301 46.2656C88.9115 42.5135 88.451 37.6342 85.2353 34.6704C82.9665 32.579 80.9069 31.9741 77.1133 32.2851Z" fill="url(#paint0_linear)"/>
<defs>
<linearGradient id="paint0_linear" x1="54.5144" y1="20" x2="54.5144" y2="50" gradientUnits="userSpaceOnUse">
<stop stop-color="#A2A2A2"/>
<stop offset="0.307292" stop-color="#FDFDFD"/>
<stop offset="0.71875" stop-color="#FCFDFD"/>
<stop offset="1" stop-color="#B4B4B4"/>
</linearGradient>
</defs>
</svg>
