<svg width="15" height="15" viewBox="0 0 15 15" fill="none" xmlns="http://www.w3.org/2000/svg">
<g clip-path="url(#clip0)">
<g filter="url(#filter0_d)">
<path d="M7.06055 2.22656H7.93945C8.01758 2.22656 8.05664 2.26562 8.05664 2.34375V12.6562C8.05664 12.7344 8.01758 12.7734 7.93945 12.7734H7.06055C6.98242 12.7734 6.94336 12.7344 6.94336 12.6562V2.34375C6.94336 2.26562 6.98242 2.22656 7.06055 2.22656Z" fill="#00D1FF"/>
</g>
<g filter="url(#filter1_d)">
<path d="M2.57812 6.94336H12.4219C12.5 6.94336 12.5391 6.98242 12.5391 7.06055V7.93945C12.5391 8.01758 12.5 8.05664 12.4219 8.05664H2.57812C2.5 8.05664 2.46094 8.01758 2.46094 7.93945V7.06055C2.46094 6.98242 2.5 6.94336 2.57812 6.94336Z" fill="#00D1FF"/>
</g>
</g>
<defs>
<filter id="filter0_d" x="6.94336" y="2.22656" width="9.11328" height="18.5469" filterUnits="userSpaceOnUse" color-interpolation-filters="sRGB">
<feFlood flood-opacity="0" result="BackgroundImageFix"/>
<feColorMatrix in="SourceAlpha" type="matrix" values="0 0 0 0 0 0 0 0 0 0 0 0 0 0 0 0 0 0 127 0" result="hardAlpha"/>
<feOffset dx="4" dy="4"/>
<feGaussianBlur stdDeviation="2"/>
<feComposite in2="hardAlpha" operator="out"/>
<feColorMatrix type="matrix" values="0 0 0 0 0 0 0 0 0 0 0 0 0 0 0 0 0 0 0.5 0"/>
<feBlend mode="normal" in2="BackgroundImageFix" result="effect1_dropShadow"/>
<feBlend mode="normal" in="SourceGraphic" in2="effect1_dropShadow" result="shape"/>
</filter>
<filter id="filter1_d" x="2.46094" y="6.94336" width="18.0781" height="9.11328" filterUnits="userSpaceOnUse" color-interpolation-filters="sRGB">
<feFlood flood-opacity="0" result="BackgroundImageFix"/>
<feColorMatrix in="SourceAlpha" type="matrix" values="0 0 0 0 0 0 0 0 0 0 0 0 0 0 0 0 0 0 127 0" result="hardAlpha"/>
<feOffset dx="4" dy="4"/>
<feGaussianBlur stdDeviation="2"/>
<feComposite in2="hardAlpha" operator="out"/>
<feColorMatrix type="matrix" values="0 0 0 0 0 0 0 0 0 0 0 0 0 0 0 0 0 0 0.5 0"/>
<feBlend mode="normal" in2="BackgroundImageFix" result="effect1_dropShadow"/>
<feBlend mode="normal" in="SourceGraphic" in2="effect1_dropShadow" result="shape"/>
</filter>
<clipPath id="clip0">
<rect width="15" height="15" fill="white"/>
</clipPath>
</defs>
</svg>
