<svg width="38" height="142" viewBox="0 0 38 142" fill="none" xmlns="http://www.w3.org/2000/svg">
<g filter="url(#filter0_d)">
<path d="M6.22569 124.572C6.22569 123.676 6.33769 122.852 6.56169 122.1C6.76969 121.332 7.10569 120.556 7.56969 119.772L7.11369 119.22C6.80969 118.836 6.60169 118.524 6.48969 118.284C6.37769 118.028 6.32169 117.74 6.32169 117.42C6.32169 117.036 6.40969 116.732 6.58569 116.508C6.74569 116.284 6.98569 116.172 7.30569 116.172C7.43369 116.172 7.56969 116.196 7.71369 116.244L11.0257 117.252C11.4097 117.364 11.6817 117.508 11.8417 117.684C12.0017 117.844 12.0817 118.092 12.0817 118.428C12.0817 118.78 11.9777 119.092 11.7697 119.364C11.5457 119.62 11.0977 120.028 10.4257 120.588C9.78569 121.148 9.33769 121.66 9.08169 122.124C8.80969 122.572 8.67369 123.036 8.67369 123.516C8.67369 123.868 8.79369 124.164 9.03369 124.404C9.25769 124.644 9.53769 124.764 9.87369 124.764C10.2577 124.764 10.6177 124.572 10.9537 124.188C11.2737 123.804 11.6817 123.204 12.1777 122.388C12.6737 121.556 13.1217 120.868 13.5217 120.324C13.9217 119.78 14.4177 119.316 15.0097 118.932C15.6017 118.548 16.2817 118.356 17.0497 118.356C17.5457 118.356 18.0417 118.436 18.5377 118.596C19.8177 118.98 20.7937 119.724 21.4657 120.828C22.1217 121.932 22.4497 123.22 22.4497 124.692C22.4497 125.796 22.3217 126.724 22.0657 127.476C21.8097 128.228 21.3777 128.996 20.7697 129.78L21.4897 130.644C21.8257 131.044 22.0577 131.372 22.1857 131.628C22.2977 131.884 22.3537 132.172 22.3537 132.492C22.3537 132.86 22.2657 133.156 22.0897 133.38C21.9137 133.588 21.6737 133.692 21.3697 133.692C21.2097 133.692 21.0417 133.66 20.8657 133.596L17.2897 132.42C16.8737 132.292 16.5777 132.116 16.4017 131.892C16.2257 131.668 16.1377 131.38 16.1377 131.028C16.1377 130.66 16.2657 130.332 16.5217 130.044C16.7777 129.74 17.2417 129.348 17.9137 128.868C18.6497 128.356 19.1617 127.884 19.4497 127.452C19.7377 127.004 19.8817 126.476 19.8817 125.868C19.8817 125.436 19.8177 125.108 19.6897 124.884C19.5457 124.644 19.3217 124.476 19.0177 124.38C18.9377 124.348 18.8177 124.332 18.6577 124.332C18.2737 124.332 17.9217 124.516 17.6017 124.884C17.2817 125.252 16.8977 125.82 16.4497 126.588C15.9537 127.404 15.5137 128.068 15.1297 128.58C14.7297 129.092 14.2337 129.54 13.6417 129.924C13.0497 130.292 12.3537 130.476 11.5537 130.476C10.9937 130.476 10.4417 130.388 9.89769 130.212C8.79369 129.876 7.90569 129.188 7.23369 128.148C6.56169 127.108 6.22569 125.916 6.22569 124.572Z" fill="#54C7E0"/>
<path d="M9.96969 106.273C9.96969 105.969 10.0337 105.737 10.1617 105.577C10.2897 105.401 10.4657 105.313 10.6897 105.313C10.7537 105.313 10.8657 105.329 11.0257 105.361C11.7297 105.569 12.0817 106.049 12.0817 106.801L12.0817 108.193L18.0097 109.993C18.2497 110.073 18.4977 110.113 18.7537 110.113C19.0417 110.113 19.2417 110.033 19.3537 109.873C19.4657 109.713 19.5217 109.489 19.5217 109.201C19.5217 108.945 19.4897 108.625 19.4257 108.241C19.3777 108.049 19.3537 107.881 19.3537 107.737C19.3537 107.625 19.3937 107.545 19.4737 107.497C19.5377 107.433 19.6257 107.401 19.7377 107.401C20.0577 107.385 20.4497 107.625 20.9137 108.121C21.3617 108.601 21.7537 109.257 22.0897 110.089C22.4097 110.921 22.5697 111.841 22.5697 112.849C22.5697 113.937 22.3217 114.809 21.8257 115.465C21.3297 116.121 20.6497 116.449 19.7857 116.449C19.3857 116.449 19.0017 116.385 18.6337 116.257L13.8817 114.721C13.6097 114.641 13.3937 114.601 13.2337 114.601C12.9137 114.601 12.6417 114.681 12.4177 114.841C12.1937 114.985 11.9617 115.193 11.7217 115.465C11.4977 115.705 11.3137 115.873 11.1697 115.969C11.0097 116.065 10.8257 116.089 10.6177 116.041C10.4097 115.977 10.2497 115.841 10.1377 115.633C10.0257 115.425 9.96969 115.097 9.96969 114.649L9.96969 113.305L8.45769 111.793C7.92969 111.265 7.56169 110.785 7.35369 110.353C7.14569 109.905 7.04169 109.329 7.04169 108.625C7.04169 107.617 7.42569 107.113 8.19369 107.113C8.43369 107.113 8.65769 107.145 8.86569 107.209L9.96969 107.545L9.96969 106.273Z" fill="#54C7E0"/>
<path d="M9.65769 98.1209C9.65769 96.2809 10.0017 94.8089 10.6897 93.7049C11.3617 92.6009 12.3937 92.0489 13.7857 92.0489C14.3137 92.0489 14.9137 92.1449 15.5857 92.3369L18.8977 93.3209C18.9617 93.3369 19.0417 93.3449 19.1377 93.3449C19.3937 93.3449 19.5217 93.2409 19.5217 93.0329C19.5217 92.8409 19.4417 92.6809 19.2817 92.5529C19.1057 92.4089 19.0177 92.3129 19.0177 92.2649C19.0177 92.1849 19.0737 92.1209 19.1857 92.0729C19.2977 92.0089 19.4257 91.9769 19.5697 91.9769C20.0017 91.9609 20.4417 92.1289 20.8897 92.4809C21.3377 92.8169 21.7057 93.2729 21.9937 93.8489C22.2817 94.4249 22.4257 95.0569 22.4257 95.7449C22.4257 96.5769 22.2737 97.2889 21.9697 97.8809C21.6657 98.4729 21.2177 98.8809 20.6257 99.1049C21.2017 99.5849 21.6497 100.153 21.9697 100.809C22.2737 101.465 22.4257 102.169 22.4257 102.921C22.4257 103.769 22.2657 104.481 21.9457 105.057C21.6097 105.633 21.1857 106.065 20.6737 106.353C20.1457 106.625 19.5937 106.761 19.0177 106.761C18.7617 106.761 18.5137 106.737 18.2737 106.689C17.1697 106.433 16.3377 105.881 15.7777 105.033C15.2177 104.169 14.9377 103.145 14.9377 101.961C14.9377 100.633 15.1457 99.3289 15.5617 98.0489L13.9777 97.4489C13.3057 97.2409 12.7857 97.1369 12.4177 97.1369C12.0337 97.1529 11.7457 97.2809 11.5537 97.5209C11.3617 97.7609 11.2657 98.1289 11.2657 98.6249C11.5217 98.5289 11.7857 98.4809 12.0577 98.4809C12.6497 98.4809 13.1617 98.7049 13.5937 99.1529C14.0257 99.6009 14.2417 100.241 14.2417 101.073C14.2417 101.857 14.0737 102.473 13.7377 102.921C13.3857 103.353 12.9537 103.569 12.4417 103.569C11.6417 103.569 10.9777 103.121 10.4497 102.225C9.92169 101.329 9.65769 99.9609 9.65769 98.1209ZM16.9297 99.4649C16.9297 99.9129 17.1057 100.281 17.4577 100.569C17.7937 100.841 18.1617 100.977 18.5617 100.977C18.8177 100.977 19.0257 100.921 19.1857 100.809C19.3457 100.681 19.4257 100.505 19.4257 100.281C19.4257 100.073 19.3457 99.8489 19.1857 99.6089C19.0097 99.3529 18.7537 99.1689 18.4177 99.0569L17.0017 98.5529C16.9537 98.8249 16.9297 99.1289 16.9297 99.4649Z" fill="#54C7E0"/>
<path d="M9.65769 79.2018C9.65769 78.3058 9.92969 77.5938 10.4737 77.0658C11.0177 76.5218 11.6897 76.2498 12.4897 76.2498C12.7937 76.2498 13.0737 76.2818 13.3297 76.3458C13.9857 76.5058 14.4897 76.8098 14.8417 77.2578C15.1937 77.7058 15.3697 78.2418 15.3697 78.8658C15.3697 79.4738 15.2257 79.9378 14.9377 80.2578C14.6497 80.5618 14.2657 80.8338 13.7857 81.0738C13.5137 81.2018 13.3137 81.3218 13.1857 81.4338C13.0577 81.5458 12.9937 81.6738 12.9937 81.8178C12.9937 81.9778 13.0577 82.1218 13.1857 82.2498C13.3137 82.3618 13.5377 82.4658 13.8577 82.5618L19.8577 84.4098C19.9377 84.4418 20.0577 84.4578 20.2177 84.4578C20.4257 84.4578 20.6017 84.4018 20.7457 84.2898C20.8737 84.1618 21.0017 83.9938 21.1297 83.7858C21.2577 83.5938 21.3617 83.4658 21.4417 83.4018C21.5217 83.3378 21.6257 83.3138 21.7537 83.3298C21.9617 83.3618 22.1137 83.4818 22.2097 83.6898C22.3057 83.8818 22.3537 84.2178 22.3537 84.6978L22.3537 90.8418C22.3537 91.2578 22.2897 91.5538 22.1617 91.7298C22.0177 91.9218 21.8337 91.9938 21.6097 91.9458C21.4177 91.8818 21.2497 91.7138 21.1057 91.4418C20.9777 91.2018 20.8257 91.0018 20.6497 90.8418C20.4737 90.6818 20.1937 90.5458 19.8097 90.4338L12.8737 88.2978C12.7937 88.2658 12.6817 88.2498 12.5377 88.2498C12.3617 88.2498 12.2257 88.2898 12.1297 88.3698C12.0337 88.4338 11.9137 88.5458 11.7697 88.7058C11.6417 88.8658 11.5297 88.9778 11.4337 89.0418C11.3377 89.1058 11.2097 89.1138 11.0497 89.0658C10.6817 88.9698 10.3617 88.4658 10.0897 87.5538C9.80169 86.6418 9.65769 85.6898 9.65769 84.6978C9.65769 84.0418 9.80969 83.4978 10.1137 83.0658C10.4017 82.6338 10.8177 82.3538 11.3617 82.2258C10.2257 81.4578 9.65769 80.4498 9.65769 79.2018Z" fill="#54C7E0"/>
<path d="M9.96969 66.3593C9.96969 66.0553 10.0337 65.8233 10.1617 65.6633C10.2897 65.4873 10.4657 65.3993 10.6897 65.3993C10.7537 65.3993 10.8657 65.4153 11.0257 65.4473C11.7297 65.6553 12.0817 66.1353 12.0817 66.8873L12.0817 68.2793L18.0097 70.0793C18.2497 70.1593 18.4977 70.1993 18.7537 70.1993C19.0417 70.1993 19.2417 70.1193 19.3537 69.9593C19.4657 69.7993 19.5217 69.5753 19.5217 69.2873C19.5217 69.0313 19.4897 68.7113 19.4257 68.3273C19.3777 68.1353 19.3537 67.9673 19.3537 67.8233C19.3537 67.7113 19.3937 67.6313 19.4737 67.5833C19.5377 67.5193 19.6257 67.4873 19.7377 67.4873C20.0577 67.4713 20.4497 67.7113 20.9137 68.2073C21.3617 68.6873 21.7537 69.3433 22.0897 70.1753C22.4097 71.0073 22.5697 71.9273 22.5697 72.9353C22.5697 74.0233 22.3217 74.8953 21.8257 75.5513C21.3297 76.2073 20.6497 76.5353 19.7857 76.5353C19.3857 76.5353 19.0017 76.4713 18.6337 76.3433L13.8817 74.8073C13.6097 74.7273 13.3937 74.6873 13.2337 74.6873C12.9137 74.6873 12.6417 74.7673 12.4177 74.9273C12.1937 75.0713 11.9617 75.2793 11.7217 75.5513C11.4977 75.7913 11.3137 75.9593 11.1697 76.0553C11.0097 76.1513 10.8257 76.1753 10.6177 76.1273C10.4097 76.0633 10.2497 75.9273 10.1377 75.7193C10.0257 75.5113 9.96969 75.1833 9.96969 74.7353L9.96969 73.3913L8.45769 71.8793C7.92969 71.3513 7.56169 70.8713 7.35369 70.4393C7.14569 69.9913 7.04169 69.4153 7.04169 68.7113C7.04169 67.7033 7.42569 67.1993 8.19369 67.1993C8.43369 67.1993 8.65769 67.2313 8.86569 67.2953L9.96969 67.6313L9.96969 66.3593Z" fill="#54C7E0"/>
<path d="M9.65769 57.4868C9.65769 55.3108 10.0977 53.7108 10.9777 52.6868C11.8577 51.6468 13.0097 51.1268 14.4337 51.1268C14.9137 51.1268 15.4497 51.1908 16.0417 51.3188C17.3537 51.6228 18.5057 52.1908 19.4977 53.0228C20.4737 53.8548 21.2337 54.8788 21.7777 56.0948C22.3057 57.2948 22.5697 58.5988 22.5697 60.0068C22.5697 62.2308 22.1297 63.8788 21.2497 64.9508C20.3537 66.0068 19.1697 66.5348 17.6977 66.5348C17.2017 66.5348 16.6497 66.4708 16.0417 66.3428C14.7937 66.0388 13.6897 65.4628 12.7297 64.6148C11.7537 63.7508 11.0017 62.7028 10.4737 61.4708C9.92969 60.2228 9.65769 58.8948 9.65769 57.4868ZM11.7937 57.5588C11.7937 57.8948 12.0977 58.2548 12.7057 58.6388C13.2977 59.0068 14.4257 59.4468 16.0897 59.9588C17.7537 60.4708 18.9217 60.7268 19.5937 60.7268C19.9457 60.7268 20.1857 60.6708 20.3137 60.5588C20.4257 60.4468 20.4817 60.2948 20.4817 60.1028C20.5137 59.7668 20.2257 59.4228 19.6177 59.0708C19.0097 58.7028 17.8257 58.2468 16.0657 57.7028C14.5137 57.2068 13.3857 56.9588 12.6817 56.9588C12.3457 56.9588 12.1137 57.0148 11.9857 57.1268C11.8577 57.2228 11.7937 57.3668 11.7937 57.5588Z" fill="#54C7E0"/>
<path d="M9.65769 39.3128C9.65769 38.4648 9.96169 37.7608 10.5697 37.2008C11.1777 36.6408 12.0097 36.3608 13.0657 36.3608C14.4897 36.3608 15.9457 36.8568 17.4337 37.8488C18.9217 38.8408 20.1537 40.0968 21.1297 41.6168C22.0897 43.1368 22.5697 44.6168 22.5697 46.0568C22.5697 47.4328 22.2897 48.5528 21.7297 49.4168C21.1697 50.2648 20.3697 50.6888 19.3297 50.6888C18.9457 50.6888 18.5137 50.6168 18.0337 50.4728L12.8737 48.9608C12.7457 48.9288 12.6497 48.9128 12.5857 48.9128C12.4257 48.9128 12.2897 48.9528 12.1777 49.0328C12.0657 49.1128 11.9457 49.2248 11.8177 49.3688C11.6097 49.6088 11.4257 49.7288 11.2657 49.7288C11.0417 49.7448 10.8017 49.6088 10.5457 49.3208C10.2897 49.0328 10.0817 48.6328 9.92169 48.1208C9.74569 47.5928 9.65769 47.0008 9.65769 46.3448C9.65769 45.2728 9.92169 44.4408 10.4497 43.8488C10.9617 43.2408 11.6337 42.9368 12.4657 42.9368C12.8337 42.9368 13.2337 43.0008 13.6657 43.1288L18.8017 44.6888C18.9457 44.7368 19.0657 44.7608 19.1617 44.7608C19.3697 44.7608 19.5297 44.6888 19.6417 44.5448C19.7537 44.4008 19.8097 44.2008 19.8097 43.9448C19.8097 43.5928 19.6577 43.1848 19.3537 42.7208C19.0337 42.2408 18.5857 41.7688 18.0097 41.3048C17.4177 40.8408 16.7217 40.4648 15.9217 40.1768C15.3617 40.8168 14.8097 41.2728 14.2657 41.5448C13.7217 41.8008 13.1617 41.9288 12.5857 41.9288C11.7697 41.9288 11.0817 41.7048 10.5217 41.2568C9.94569 40.8088 9.65769 40.1608 9.65769 39.3128Z" fill="#54C7E0"/>
<path d="M19.0417 21.8016C19.1057 21.8336 19.2017 21.8496 19.3297 21.8496C19.4417 21.8496 19.5297 21.8256 19.5937 21.7776C19.6577 21.7136 19.6897 21.6336 19.6897 21.5376C19.6897 21.3456 19.6097 21.1856 19.4497 21.0576C19.2737 20.9136 19.1857 20.8176 19.1857 20.7696C19.1857 20.6896 19.2417 20.6256 19.3537 20.5776C19.4497 20.5296 19.5697 20.5056 19.7137 20.5056C20.1777 20.4896 20.6337 20.6416 21.0817 20.9616C21.5137 21.2816 21.8737 21.7536 22.1617 22.3776C22.4337 22.9856 22.5697 23.7216 22.5697 24.5856C22.5697 25.6416 22.3297 26.4816 21.8497 27.1056C21.3537 27.7296 20.6977 28.0496 19.8817 28.0656C19.2897 28.0656 18.6257 27.9216 17.8897 27.6336L14.4337 26.3136C14.2257 26.2336 14.0577 26.1936 13.9297 26.1936C13.7217 26.1936 13.5617 26.2656 13.4497 26.4096C13.3217 26.5376 13.2577 26.6976 13.2577 26.8896C13.2577 27.2416 13.4257 27.5776 13.7617 27.8976C14.0817 28.2176 14.4817 28.4496 14.9617 28.5936L19.8577 30.0816C20.0337 30.1456 20.2017 30.1776 20.3617 30.1776C20.5537 30.1776 20.7137 30.1376 20.8417 30.0576C20.9537 29.9776 21.0737 29.8656 21.2017 29.7216C21.2977 29.6096 21.3857 29.5296 21.4657 29.4816C21.5457 29.4336 21.6417 29.4256 21.7537 29.4576C21.9617 29.5216 22.1137 29.6736 22.2097 29.9136C22.3057 30.1536 22.3537 30.5296 22.3537 31.0416L22.3537 36.5136C22.3537 36.9296 22.2897 37.2256 22.1617 37.4016C22.0177 37.5936 21.8337 37.6656 21.6097 37.6176C21.4177 37.5536 21.2497 37.3856 21.1057 37.1136C20.9777 36.8736 20.8257 36.6736 20.6497 36.5136C20.4737 36.3536 20.1937 36.2176 19.8097 36.1056L12.8737 33.9696C12.7937 33.9376 12.6817 33.9216 12.5377 33.9216C12.3617 33.9216 12.2257 33.9616 12.1297 34.0416C12.0337 34.1056 11.9137 34.2176 11.7697 34.3776C11.6417 34.5376 11.5297 34.6496 11.4337 34.7136C11.3377 34.7776 11.2097 34.7856 11.0497 34.7376C10.6817 34.6416 10.3617 34.1376 10.0897 33.2256C9.80169 32.3136 9.65769 31.3616 9.65769 30.3696C9.65769 29.5696 9.88169 28.9376 10.3297 28.4736C10.7617 28.0096 11.3697 27.8016 12.1537 27.8496C11.2097 27.1936 10.5617 26.4976 10.2097 25.7616C9.84169 25.0256 9.65769 24.2256 9.65769 23.3616C9.65769 22.3856 9.95369 21.6016 10.5457 21.0096C11.1377 20.4016 11.9057 20.0976 12.8497 20.0976C13.3457 20.0976 13.8337 20.1776 14.3137 20.3376L19.0417 21.8016Z" fill="#54C7E0"/>
<path d="M9.65769 13.166C9.65769 12.238 9.83369 11.5579 10.1857 11.1259C10.5377 10.6939 11.0177 10.478 11.6257 10.478C11.9937 10.478 12.3457 10.534 12.6817 10.646L19.8577 12.854C20.0497 12.902 20.2177 12.926 20.3617 12.926C20.5697 12.926 20.7377 12.8859 20.8657 12.8059C20.9777 12.7259 21.0897 12.614 21.2017 12.47C21.3137 12.358 21.4097 12.278 21.4897 12.23C21.5537 12.182 21.6417 12.174 21.7537 12.206C21.9617 12.286 22.1137 12.446 22.2097 12.686C22.3057 12.926 22.3537 13.294 22.3537 13.79L22.3537 19.262C22.3537 19.678 22.2897 19.982 22.1617 20.174C22.0177 20.366 21.8337 20.43 21.6097 20.366C21.4177 20.302 21.2497 20.1339 21.1057 19.8619C20.9777 19.6219 20.8257 19.422 20.6497 19.262C20.4737 19.102 20.1937 18.966 19.8097 18.854L12.8737 16.7659C12.7297 16.7179 12.6097 16.694 12.5137 16.694C12.3377 16.694 12.2017 16.734 12.1057 16.814C11.9937 16.894 11.8817 17.014 11.7697 17.174C11.6417 17.334 11.5297 17.446 11.4337 17.51C11.3377 17.574 11.2097 17.582 11.0497 17.534C10.6817 17.438 10.3617 16.934 10.0897 16.022C9.80169 15.11 9.65769 14.158 9.65769 13.166ZM6.00969 11.7259C5.33769 11.3419 4.84969 10.95 4.54569 10.55C4.24169 10.134 4.08969 9.63795 4.08969 9.06195C4.08969 8.56595 4.22569 8.17395 4.49769 7.88595C4.75369 7.59795 5.10569 7.45395 5.55369 7.45395C6.03369 7.45395 6.44969 7.61395 6.80169 7.93395C7.15369 8.25395 7.50569 8.77395 7.85769 9.49395L8.86569 11.582C8.99369 11.886 9.05769 12.1419 9.05769 12.3499C9.05769 12.5419 9.00969 12.702 8.91369 12.83C8.81769 12.942 8.67369 12.998 8.48169 12.998C8.27369 12.998 8.03369 12.918 7.76169 12.758L6.00969 11.7259Z" fill="#54C7E0"/>
<path d="M27.3617 55.18C27.3617 54.516 27.4217 53.944 27.5417 53.464C27.6617 52.976 27.8297 52.604 28.0457 52.348C28.2617 52.084 28.5057 51.952 28.7777 51.952C29.0577 51.952 29.2857 52.064 29.4617 52.288C29.6377 52.504 29.7257 52.808 29.7257 53.2C29.7257 53.6 29.6257 53.94 29.4257 54.22C29.2257 54.492 28.9737 54.628 28.6697 54.628C28.5657 54.628 28.4657 54.612 28.3697 54.58C28.3297 54.724 28.3097 54.852 28.3097 54.964C28.3097 55.164 28.3577 55.332 28.4537 55.468C28.5497 55.596 28.6857 55.656 28.8617 55.648C29.0697 55.648 29.2457 55.544 29.3897 55.336C29.5337 55.128 29.7137 54.792 29.9297 54.328C30.1057 53.928 30.2697 53.6 30.4217 53.344C30.5657 53.08 30.7497 52.86 30.9737 52.684C31.1977 52.5 31.4617 52.408 31.7657 52.408C31.8297 52.408 31.9497 52.424 32.1257 52.456C32.6617 52.584 33.0857 52.94 33.3977 53.524C33.7097 54.108 33.8657 54.876 33.8657 55.828C33.8657 56.9 33.7217 57.752 33.4337 58.384C33.1457 59.008 32.7497 59.32 32.2457 59.32C31.9017 59.32 31.6417 59.216 31.4657 59.008C31.2897 58.8 31.2017 58.524 31.2017 58.18C31.2017 57.78 31.3257 57.44 31.5737 57.16C31.8217 56.872 32.1377 56.728 32.5217 56.728C32.6257 56.728 32.7337 56.74 32.8457 56.764C32.8937 56.572 32.9177 56.388 32.9177 56.212C32.9177 56.004 32.8617 55.832 32.7497 55.696C32.6377 55.56 32.4817 55.492 32.2817 55.492C32.0977 55.5 31.9417 55.592 31.8137 55.768C31.6777 55.944 31.5177 56.224 31.3337 56.608C31.1657 56.968 31.0097 57.264 30.8657 57.496C30.7137 57.728 30.5257 57.928 30.3017 58.096C30.0777 58.256 29.8137 58.336 29.5097 58.336C28.8537 58.336 28.3337 58.064 27.9497 57.52C27.5577 56.968 27.3617 56.188 27.3617 55.18ZM24.7337 52.432C24.7337 52.2 24.7937 52.008 24.9137 51.856C25.0257 51.696 25.1857 51.616 25.3937 51.616C25.6097 51.616 25.7897 51.692 25.9337 51.844C26.0697 51.996 26.2177 52.268 26.3777 52.66L27.1337 54.412C27.1737 54.508 27.1937 54.588 27.1937 54.652C27.1937 54.748 27.1457 54.852 27.0497 54.964L26.3657 55.72C26.1417 55.976 25.8777 56.104 25.5737 56.104C25.3417 56.104 25.1457 56.02 24.9857 55.852C24.8177 55.676 24.7337 55.44 24.7337 55.144C24.7337 54.904 24.8017 54.708 24.9377 54.556C25.0657 54.396 25.2577 54.288 25.5137 54.232L26.0177 54.124L25.2617 53.488C25.0617 53.328 24.9257 53.168 24.8537 53.008C24.7737 52.84 24.7337 52.648 24.7337 52.432Z" fill="#EAEAEA"/>
<path d="M27.4697 47.7307C27.4697 46.8107 27.6417 46.0747 27.9857 45.5227C28.3217 44.9707 28.8377 44.6947 29.5337 44.6947C29.7977 44.6947 30.0977 44.7427 30.4337 44.8387L32.0897 45.3307C32.1217 45.3387 32.1617 45.3427 32.2097 45.3427C32.3377 45.3427 32.4017 45.2907 32.4017 45.1867C32.4017 45.0907 32.3617 45.0107 32.2817 44.9467C32.1937 44.8747 32.1497 44.8267 32.1497 44.8027C32.1497 44.7627 32.1777 44.7307 32.2337 44.7067C32.2897 44.6747 32.3537 44.6587 32.4257 44.6587C32.6417 44.6507 32.8617 44.7347 33.0857 44.9107C33.3097 45.0787 33.4937 45.3067 33.6377 45.5947C33.7817 45.8827 33.8537 46.1987 33.8537 46.5427C33.8537 46.9587 33.7777 47.3147 33.6257 47.6107C33.4737 47.9067 33.2497 48.1107 32.9537 48.2227C33.2417 48.4627 33.4657 48.7467 33.6257 49.0747C33.7777 49.4027 33.8537 49.7547 33.8537 50.1307C33.8537 50.5547 33.7737 50.9107 33.6137 51.1987C33.4457 51.4867 33.2337 51.7027 32.9777 51.8467C32.7137 51.9827 32.4377 52.0507 32.1497 52.0507C32.0217 52.0507 31.8977 52.0387 31.7777 52.0147C31.2257 51.8867 30.8097 51.6107 30.5297 51.1867C30.2497 50.7547 30.1097 50.2427 30.1097 49.6507C30.1097 48.9867 30.2137 48.3347 30.4217 47.6947L29.6297 47.3947C29.2937 47.2907 29.0337 47.2387 28.8497 47.2387C28.6577 47.2467 28.5137 47.3107 28.4177 47.4307C28.3217 47.5507 28.2737 47.7347 28.2737 47.9827C28.4017 47.9347 28.5337 47.9107 28.6697 47.9107C28.9657 47.9107 29.2217 48.0227 29.4377 48.2467C29.6537 48.4707 29.7617 48.7907 29.7617 49.2067C29.7617 49.5987 29.6777 49.9067 29.5097 50.1307C29.3337 50.3467 29.1177 50.4547 28.8617 50.4547C28.4617 50.4547 28.1297 50.2307 27.8657 49.7827C27.6017 49.3347 27.4697 48.6507 27.4697 47.7307ZM31.1057 48.4027C31.1057 48.6267 31.1937 48.8107 31.3697 48.9547C31.5377 49.0907 31.7217 49.1587 31.9217 49.1587C32.0497 49.1587 32.1537 49.1307 32.2337 49.0747C32.3137 49.0107 32.3537 48.9227 32.3537 48.8107C32.3537 48.7067 32.3137 48.5947 32.2337 48.4747C32.1457 48.3467 32.0177 48.2547 31.8497 48.1987L31.1417 47.9467C31.1177 48.0827 31.1057 48.2347 31.1057 48.4027Z" fill="#EAEAEA"/>
<path d="M27.4217 38.0432C27.4217 37.4512 27.6337 36.9792 28.0577 36.6272C28.4817 36.2672 29.0417 36.0872 29.7377 36.0872C30.0977 36.0872 30.4497 36.1312 30.7937 36.2192C31.8257 36.4752 32.6057 36.9152 33.1337 37.5392C33.6617 38.1552 33.9257 38.8672 33.9257 39.6752C33.9257 40.1312 33.8497 40.5272 33.6977 40.8632C33.5377 41.1912 33.3137 41.4552 33.0257 41.6552L33.3977 42.0872C33.5417 42.2552 33.6497 42.4192 33.7217 42.5792C33.7857 42.7392 33.8177 42.9232 33.8177 43.1312L33.8177 43.6592C33.8177 43.8592 33.7777 44.0152 33.6977 44.1272C33.6097 44.2312 33.4857 44.2832 33.3257 44.2832C33.2537 44.2832 33.1697 44.2712 33.0737 44.2472L26.5577 42.2432C26.4857 42.2192 26.4257 42.2072 26.3777 42.2072C26.2417 42.2072 26.1137 42.2912 25.9937 42.4592C25.9217 42.5392 25.8657 42.5952 25.8257 42.6272C25.7777 42.6592 25.7177 42.6632 25.6457 42.6392C25.4617 42.5832 25.3017 42.3312 25.1657 41.8832C25.0217 41.4272 24.9497 40.9512 24.9497 40.4552C24.9497 39.9912 25.0417 39.6512 25.2257 39.4352C25.4017 39.2112 25.6417 39.0992 25.9457 39.0992C26.1137 39.0992 26.2817 39.1272 26.4497 39.1832L28.0817 39.6872C27.6417 39.2232 27.4217 38.6752 27.4217 38.0432ZM30.7217 39.3992C30.1777 39.2392 29.7377 39.1592 29.4017 39.1592C29.0337 39.1592 28.8497 39.2672 28.8497 39.4832C28.8497 39.6752 28.9497 39.8552 29.1497 40.0232L31.6937 40.8032L31.9217 40.8752C32.0417 40.9152 32.1657 40.9352 32.2937 40.9352C32.5737 40.9352 32.7137 40.8032 32.7137 40.5392C32.7137 40.3472 32.5737 40.1632 32.2937 39.9872C32.0137 39.8112 31.4897 39.6152 30.7217 39.3992Z" fill="#EAEAEA"/>
<path d="M24.9497 32.2141C24.9497 31.7501 25.0377 31.4101 25.2137 31.1941C25.3897 30.9701 25.6297 30.8581 25.9337 30.8581C26.1097 30.8581 26.2817 30.8861 26.4497 30.9421L32.5697 32.8261C32.6657 32.8501 32.7497 32.8621 32.8217 32.8621C32.9257 32.8621 33.0097 32.8421 33.0737 32.8021C33.1297 32.7621 33.1857 32.7061 33.2417 32.6341C33.2977 32.5781 33.3457 32.5381 33.3857 32.5141C33.4177 32.4901 33.4617 32.4861 33.5177 32.5021C33.6217 32.5421 33.6977 32.6221 33.7457 32.7421C33.7937 32.8621 33.8177 33.0461 33.8177 33.2941L33.8177 36.0301C33.8177 36.2381 33.7857 36.3901 33.7217 36.4861C33.6497 36.5821 33.5577 36.6141 33.4457 36.5821C33.3497 36.5501 33.2657 36.4661 33.1937 36.3301C33.1297 36.2101 33.0537 36.1101 32.9657 36.0301C32.8777 35.9501 32.7377 35.8821 32.5457 35.8261L26.5577 34.0021C26.4857 33.9781 26.4257 33.9661 26.3777 33.9661C26.2897 33.9661 26.2177 33.9901 26.1617 34.0381C26.1057 34.0781 26.0497 34.1341 25.9937 34.2061C25.9297 34.2861 25.8737 34.3461 25.8257 34.3861C25.7777 34.4181 25.7137 34.4221 25.6337 34.3981C25.4497 34.3501 25.2897 34.0981 25.1537 33.6421C25.0177 33.1861 24.9497 32.7101 24.9497 32.2141Z" fill="#EAEAEA"/>
<path d="M27.4697 27.0036C27.4697 25.9156 27.6897 25.1156 28.1297 24.6036C28.5697 24.0836 29.1457 23.8236 29.8577 23.8236C30.0977 23.8236 30.3657 23.8556 30.6617 23.9195C31.3177 24.0716 31.8937 24.3556 32.3897 24.7716C32.8777 25.1876 33.2577 25.6996 33.5297 26.3076C33.7937 26.9076 33.9257 27.5596 33.9257 28.2636C33.9257 29.3756 33.7057 30.1996 33.2657 30.7356C32.8177 31.2636 32.2257 31.5276 31.4897 31.5276C31.2417 31.5276 30.9657 31.4956 30.6617 31.4316C30.0377 31.2796 29.4857 30.9916 29.0057 30.5676C28.5177 30.1356 28.1417 29.6116 27.8777 28.9956C27.6057 28.3716 27.4697 27.7076 27.4697 27.0036ZM28.5377 27.0396C28.5377 27.2076 28.6897 27.3876 28.9937 27.5796C29.2897 27.7636 29.8537 27.9836 30.6857 28.2396C31.5177 28.4956 32.1017 28.6236 32.4377 28.6236C32.6137 28.6236 32.7337 28.5956 32.7977 28.5396C32.8537 28.4836 32.8817 28.4076 32.8817 28.3116C32.8977 28.1436 32.7537 27.9716 32.4497 27.7956C32.1457 27.6116 31.5537 27.3836 30.6737 27.1116C29.8977 26.8636 29.3337 26.7396 28.9817 26.7396C28.8137 26.7396 28.6977 26.7676 28.6337 26.8236C28.5697 26.8716 28.5377 26.9436 28.5377 27.0396Z" fill="#EAEAEA"/>
<path d="M32.1617 16.3446C32.1937 16.3606 32.2417 16.3686 32.3057 16.3686C32.3617 16.3686 32.4057 16.3566 32.4377 16.3326C32.4697 16.3006 32.4857 16.2606 32.4857 16.2126C32.4857 16.1166 32.4457 16.0366 32.3657 15.9726C32.2777 15.9006 32.2337 15.8526 32.2337 15.8286C32.2337 15.7886 32.2617 15.7566 32.3177 15.7326C32.3657 15.7086 32.4257 15.6966 32.4977 15.6966C32.7297 15.6886 32.9577 15.7646 33.1817 15.9246C33.3977 16.0846 33.5777 16.3206 33.7217 16.6326C33.8577 16.9366 33.9257 17.3046 33.9257 17.7366C33.9257 18.2646 33.8057 18.6846 33.5657 18.9966C33.3177 19.3086 32.9897 19.4686 32.5817 19.4766C32.2857 19.4766 31.9537 19.4046 31.5857 19.2606L29.8577 18.6006C29.7537 18.5606 29.6697 18.5406 29.6057 18.5406C29.5017 18.5406 29.4217 18.5765 29.3657 18.6485C29.3017 18.7125 29.2697 18.7926 29.2697 18.8886C29.2697 19.0646 29.3537 19.2326 29.5217 19.3926C29.6817 19.5526 29.8817 19.6686 30.1217 19.7406L32.5697 20.4846C32.6577 20.5166 32.7417 20.5326 32.8217 20.5326C32.9177 20.5326 32.9977 20.5126 33.0617 20.4726C33.1177 20.4326 33.1777 20.3766 33.2417 20.3046C33.2897 20.2486 33.3337 20.2086 33.3737 20.1846C33.4137 20.1606 33.4617 20.1566 33.5177 20.1726C33.6217 20.2046 33.6977 20.2806 33.7457 20.4006C33.7937 20.5206 33.8177 20.7086 33.8177 20.9646L33.8177 23.7006C33.8177 23.9086 33.7857 24.0566 33.7217 24.1446C33.6497 24.2406 33.5577 24.2765 33.4457 24.2525C33.3497 24.2205 33.2657 24.1366 33.1937 24.0006C33.1297 23.8806 33.0537 23.7806 32.9657 23.7006C32.8777 23.6206 32.7377 23.5526 32.5457 23.4966L29.0777 22.4286C29.0377 22.4126 28.9817 22.4046 28.9097 22.4046C28.8217 22.4046 28.7537 22.4246 28.7057 22.4646C28.6577 22.4966 28.5977 22.5526 28.5257 22.6326C28.4617 22.7126 28.4057 22.7686 28.3577 22.8006C28.3097 22.8326 28.2457 22.8366 28.1657 22.8126C27.9817 22.7646 27.8217 22.5126 27.6857 22.0566C27.5417 21.6006 27.4697 21.1246 27.4697 20.6286C27.4697 20.2286 27.5817 19.9126 27.8057 19.6806C28.0217 19.4486 28.3257 19.3446 28.7177 19.3686C28.2457 19.0406 27.9217 18.6926 27.7457 18.3246C27.5617 17.9566 27.4697 17.5566 27.4697 17.1246C27.4697 16.6366 27.6177 16.2446 27.9137 15.9486C28.2097 15.6446 28.5937 15.4926 29.0657 15.4926C29.3137 15.4926 29.5577 15.5326 29.7977 15.6126L32.1617 16.3446Z" fill="#EAEAEA"/>
<path d="M27.4697 10.8987C27.4697 9.97871 27.6417 9.24271 27.9857 8.69071C28.3217 8.13871 28.8377 7.86271 29.5337 7.86271C29.7977 7.86271 30.0977 7.91071 30.4337 8.00671L32.0897 8.49871C32.1217 8.50671 32.1617 8.51071 32.2097 8.51071C32.3377 8.51071 32.4017 8.45871 32.4017 8.35471C32.4017 8.25871 32.3617 8.17871 32.2817 8.11471C32.1937 8.04271 32.1497 7.99471 32.1497 7.97071C32.1497 7.93071 32.1777 7.89871 32.2337 7.87471C32.2897 7.84271 32.3537 7.82671 32.4257 7.82671C32.6417 7.81871 32.8617 7.90271 33.0857 8.07871C33.3097 8.24671 33.4937 8.47471 33.6377 8.76271C33.7817 9.05071 33.8537 9.36671 33.8537 9.71071C33.8537 10.1267 33.7777 10.4827 33.6257 10.7787C33.4737 11.0747 33.2497 11.2787 32.9537 11.3907C33.2417 11.6307 33.4657 11.9147 33.6257 12.2427C33.7777 12.5707 33.8537 12.9227 33.8537 13.2987C33.8537 13.7227 33.7737 14.0787 33.6137 14.3667C33.4457 14.6547 33.2337 14.8707 32.9777 15.0147C32.7137 15.1507 32.4377 15.2187 32.1497 15.2187C32.0217 15.2187 31.8977 15.2067 31.7777 15.1827C31.2257 15.0547 30.8097 14.7787 30.5297 14.3547C30.2497 13.9227 30.1097 13.4107 30.1097 12.8187C30.1097 12.1547 30.2137 11.5027 30.4217 10.8627L29.6297 10.5627C29.2937 10.4587 29.0337 10.4067 28.8497 10.4067C28.6577 10.4147 28.5137 10.4787 28.4177 10.5987C28.3217 10.7187 28.2737 10.9027 28.2737 11.1507C28.4017 11.1027 28.5337 11.0787 28.6697 11.0787C28.9657 11.0787 29.2217 11.1907 29.4377 11.4147C29.6537 11.6387 29.7617 11.9587 29.7617 12.3747C29.7617 12.7667 29.6777 13.0747 29.5097 13.2987C29.3337 13.5147 29.1177 13.6227 28.8617 13.6227C28.4617 13.6227 28.1297 13.3987 27.8657 12.9507C27.6017 12.5027 27.4697 11.8187 27.4697 10.8987ZM31.1057 11.5707C31.1057 11.7947 31.1937 11.9787 31.3697 12.1227C31.5377 12.2587 31.7217 12.3267 31.9217 12.3267C32.0497 12.3267 32.1537 12.2987 32.2337 12.2427C32.3137 12.1787 32.3537 12.0907 32.3537 11.9787C32.3537 11.8747 32.3137 11.7627 32.2337 11.6427C32.1457 11.5147 32.0177 11.4227 31.8497 11.3667L31.1417 11.1147C31.1177 11.2507 31.1057 11.4027 31.1057 11.5707Z" fill="#EAEAEA"/>
</g>
<defs>
<filter id="filter0_d" x="-2" y="0" width="43" height="148" filterUnits="userSpaceOnUse" color-interpolation-filters="sRGB">
<feFlood flood-opacity="0" result="BackgroundImageFix"/>
<feColorMatrix in="SourceAlpha" type="matrix" values="0 0 0 0 0 0 0 0 0 0 0 0 0 0 0 0 0 0 127 0" result="hardAlpha"/>
<feOffset dy="4"/>
<feGaussianBlur stdDeviation="2"/>
<feComposite in2="hardAlpha" operator="out"/>
<feColorMatrix type="matrix" values="0 0 0 0 0 0 0 0 0 0 0 0 0 0 0 0 0 0 0.25 0"/>
<feBlend mode="normal" in2="BackgroundImageFix" result="effect1_dropShadow"/>
<feBlend mode="normal" in="SourceGraphic" in2="effect1_dropShadow" result="shape"/>
</filter>
</defs>
</svg>
