<svg width="250" height="30" viewBox="0 0 250 30" fill="none" xmlns="http://www.w3.org/2000/svg">
<rect width="250" height="15" fill="#515151"/>
<path d="M20 7C20 5.89543 20.8954 5 22 5H68C69.1046 5 70 5.89543 70 7V15H20V7Z" fill="#303030"/>
<path d="M31.1445 11.002L31.5508 9.38672H31.9121L31.2969 11.5H31.0039L30.4902 9.89844L29.9902 11.5H29.6973L29.084 9.38672H29.4434L29.8594 10.9688L30.3516 9.38672H30.6426L31.1445 11.002ZM34.5523 11.002L34.9586 9.38672H35.3199L34.7047 11.5H34.4117L33.898 9.89844L33.398 11.5H33.1051L32.4918 9.38672H32.8512L33.2672 10.9688L33.7594 9.38672H34.0504L34.5523 11.002ZM37.9602 11.002L38.3664 9.38672H38.7277L38.1125 11.5H37.8195L37.3059 9.89844L36.8059 11.5H36.5129L35.8996 9.38672H36.259L36.675 10.9688L37.1672 9.38672H37.4582L37.9602 11.002ZM39.2625 11.3105C39.2625 11.248 39.2807 11.196 39.3172 11.1543C39.3549 11.1126 39.4109 11.0918 39.4852 11.0918C39.5594 11.0918 39.6154 11.1126 39.6531 11.1543C39.6922 11.196 39.7117 11.248 39.7117 11.3105C39.7117 11.3704 39.6922 11.4206 39.6531 11.4609C39.6154 11.5013 39.5594 11.5215 39.4852 11.5215C39.4109 11.5215 39.3549 11.5013 39.3172 11.4609C39.2807 11.4206 39.2625 11.3704 39.2625 11.3105ZM40.6215 10.4258C40.6215 10.1016 40.6983 9.84115 40.852 9.64453C41.0056 9.44661 41.2068 9.34766 41.4555 9.34766C41.7029 9.34766 41.8988 9.43229 42.0434 9.60156V8.5H42.4047V11.5H42.0727L42.0551 11.2734C41.9105 11.4505 41.7094 11.5391 41.4516 11.5391C41.2068 11.5391 41.0069 11.4388 40.852 11.2383C40.6983 11.0378 40.6215 10.776 40.6215 10.4531V10.4258ZM40.9828 10.4668C40.9828 10.7064 41.0323 10.8939 41.1313 11.0293C41.2302 11.1647 41.3669 11.2324 41.5414 11.2324C41.7706 11.2324 41.9379 11.1296 42.0434 10.9238V9.95312C41.9353 9.75391 41.7693 9.6543 41.5453 9.6543C41.3682 9.6543 41.2302 9.72266 41.1313 9.85938C41.0323 9.99609 40.9828 10.1986 40.9828 10.4668ZM44.2441 11.5391C43.9577 11.5391 43.7246 11.4453 43.5449 11.2578C43.3652 11.069 43.2754 10.8171 43.2754 10.502V10.4355C43.2754 10.2259 43.3151 10.0391 43.3945 9.875C43.4753 9.70964 43.5872 9.58073 43.7305 9.48828C43.875 9.39453 44.0312 9.34766 44.1992 9.34766C44.474 9.34766 44.6875 9.43815 44.8398 9.61914C44.9922 9.80013 45.0684 10.0592 45.0684 10.3965V10.5469H43.6367C43.6419 10.7552 43.7025 10.9238 43.8184 11.0527C43.9355 11.1803 44.084 11.2441 44.2637 11.2441C44.3913 11.2441 44.4993 11.2181 44.5879 11.166C44.6764 11.1139 44.7539 11.0449 44.8203 10.959L45.041 11.1309C44.8639 11.403 44.5983 11.5391 44.2441 11.5391ZM44.1992 9.64453C44.0534 9.64453 43.931 9.69792 43.832 9.80469C43.7331 9.91016 43.6719 10.0586 43.6484 10.25H44.707V10.2227C44.6966 10.0391 44.6471 9.89714 44.5586 9.79688C44.4701 9.69531 44.3503 9.64453 44.1992 9.64453ZM47.1187 10.9395C47.1187 10.8418 47.0816 10.7663 47.0074 10.7129C46.9345 10.6582 46.8062 10.6113 46.6227 10.5723C46.4404 10.5332 46.2952 10.4863 46.1871 10.4316C46.0803 10.377 46.0009 10.3118 45.9488 10.2363C45.898 10.1608 45.8727 10.071 45.8727 9.9668C45.8727 9.79362 45.9456 9.64714 46.0914 9.52734C46.2385 9.40755 46.426 9.34766 46.6539 9.34766C46.8935 9.34766 47.0875 9.40951 47.2359 9.5332C47.3857 9.6569 47.4605 9.8151 47.4605 10.0078H47.0973C47.0973 9.90885 47.0549 9.82357 46.9703 9.75195C46.887 9.68034 46.7815 9.64453 46.6539 9.64453C46.5224 9.64453 46.4195 9.67318 46.3453 9.73047C46.2711 9.78776 46.234 9.86263 46.234 9.95508C46.234 10.0423 46.2685 10.1081 46.3375 10.1523C46.4065 10.1966 46.5309 10.2389 46.7105 10.2793C46.8915 10.3197 47.038 10.3678 47.15 10.4238C47.262 10.4798 47.3447 10.5475 47.398 10.627C47.4527 10.7051 47.4801 10.8008 47.4801 10.9141C47.4801 11.1029 47.4046 11.2546 47.2535 11.3691C47.1025 11.4824 46.9065 11.5391 46.6656 11.5391C46.4964 11.5391 46.3466 11.5091 46.2164 11.4492C46.0862 11.3893 45.984 11.306 45.9098 11.1992C45.8368 11.0911 45.8004 10.9746 45.8004 10.8496H46.1617C46.1682 10.9707 46.2164 11.0671 46.3062 11.1387C46.3974 11.209 46.5172 11.2441 46.6656 11.2441C46.8023 11.2441 46.9117 11.2168 46.9937 11.1621C47.0771 11.1061 47.1187 11.0319 47.1187 10.9395ZM48.7434 11.5H48.382V9.38672H48.7434V11.5ZM48.3527 8.82617C48.3527 8.76758 48.3703 8.7181 48.4055 8.67773C48.4419 8.63737 48.4953 8.61719 48.5656 8.61719C48.6359 8.61719 48.6893 8.63737 48.7258 8.67773C48.7622 8.7181 48.7805 8.76758 48.7805 8.82617C48.7805 8.88477 48.7622 8.93359 48.7258 8.97266C48.6893 9.01172 48.6359 9.03125 48.5656 9.03125C48.4953 9.03125 48.4419 9.01172 48.4055 8.97266C48.3703 8.93359 48.3527 8.88477 48.3527 8.82617ZM49.6375 10.4258C49.6375 10.0964 49.7137 9.83464 49.866 9.64062C50.0184 9.44531 50.2202 9.34766 50.4715 9.34766C50.7293 9.34766 50.9305 9.4388 51.075 9.62109L51.0926 9.38672H51.4227V11.4492C51.4227 11.7227 51.3413 11.9382 51.1785 12.0957C51.0171 12.2533 50.7996 12.332 50.5262 12.332C50.3738 12.332 50.2247 12.2995 50.0789 12.2344C49.9331 12.1693 49.8217 12.0801 49.7449 11.9668L49.9324 11.75C50.0874 11.9414 50.2768 12.0371 50.5008 12.0371C50.6766 12.0371 50.8133 11.9876 50.9109 11.8887C51.0099 11.7897 51.0594 11.6504 51.0594 11.4707V11.2891C50.9148 11.4557 50.7176 11.5391 50.4676 11.5391C50.2202 11.5391 50.0197 11.4395 49.866 11.2402C49.7137 11.041 49.6375 10.7695 49.6375 10.4258ZM50.0008 10.4668C50.0008 10.7051 50.0496 10.8926 50.1473 11.0293C50.2449 11.1647 50.3816 11.2324 50.5574 11.2324C50.7853 11.2324 50.9526 11.1289 51.0594 10.9219V9.95703C50.9487 9.75521 50.7827 9.6543 50.5613 9.6543C50.3855 9.6543 50.2482 9.72266 50.1492 9.85938C50.0503 9.99609 50.0008 10.1986 50.0008 10.4668ZM52.7113 9.38672L52.723 9.65234C52.8845 9.44922 53.0954 9.34766 53.3559 9.34766C53.8025 9.34766 54.0277 9.59961 54.0316 10.1035V11.5H53.6703V10.1016C53.669 9.94922 53.6339 9.83659 53.5648 9.76367C53.4971 9.69076 53.391 9.6543 53.2465 9.6543C53.1293 9.6543 53.0264 9.68555 52.9379 9.74805C52.8493 9.81055 52.7803 9.89258 52.7309 9.99414V11.5H52.3695V9.38672H52.7113ZM54.9844 11.3105C54.9844 11.248 55.0026 11.196 55.0391 11.1543C55.0768 11.1126 55.1328 11.0918 55.207 11.0918C55.2812 11.0918 55.3372 11.1126 55.375 11.1543C55.4141 11.196 55.4336 11.248 55.4336 11.3105C55.4336 11.3704 55.4141 11.4206 55.375 11.4609C55.3372 11.5013 55.2812 11.5215 55.207 11.5215C55.1328 11.5215 55.0768 11.5013 55.0391 11.4609C55.0026 11.4206 54.9844 11.3704 54.9844 11.3105ZM57.2789 11.2441C57.4078 11.2441 57.5204 11.2051 57.6168 11.127C57.7132 11.0488 57.7665 10.9512 57.777 10.834H58.1187C58.1122 10.9551 58.0706 11.0703 57.9937 11.1797C57.9169 11.2891 57.8141 11.3763 57.6852 11.4414C57.5576 11.5065 57.4221 11.5391 57.2789 11.5391C56.9911 11.5391 56.762 11.4434 56.5914 11.252C56.4221 11.0592 56.3375 10.7962 56.3375 10.4629V10.4023C56.3375 10.1966 56.3753 10.0137 56.4508 9.85352C56.5263 9.69336 56.6344 9.56901 56.775 9.48047C56.9169 9.39193 57.0842 9.34766 57.277 9.34766C57.5139 9.34766 57.7105 9.41862 57.8668 9.56055C58.0243 9.70247 58.1083 9.88672 58.1187 10.1133H57.777C57.7665 9.97656 57.7145 9.86458 57.6207 9.77734C57.5283 9.6888 57.4137 9.64453 57.277 9.64453C57.0934 9.64453 56.9508 9.71094 56.8492 9.84375C56.749 9.97526 56.6988 10.166 56.6988 10.416V10.4844C56.6988 10.7279 56.749 10.9154 56.8492 11.0469C56.9495 11.1784 57.0927 11.2441 57.2789 11.2441ZM59.2648 11.2051H60.5012V11.5H58.8234V11.2344L59.9895 9.68555H58.841V9.38672H60.4426V9.64258L59.2648 11.2051Z" fill="white"/>
<circle cx="224" cy="8" r="2" fill="#C4C4C4"/>
<circle cx="233" cy="8" r="2" fill="#5EDFFC"/>
<circle cx="215" cy="8" r="2" fill="#C4C4C4"/>
<rect width="250" height="15" transform="translate(0 15)" fill="#303030"/>
<rect x="40" y="18" width="180" height="9" rx="1" fill="#515151"/>
<path d="M53.6348 22.1426C53.7949 21.946 54.0033 21.8477 54.2598 21.8477C54.7064 21.8477 54.9316 22.0996 54.9355 22.6035V24H54.5742V22.6016C54.5729 22.4492 54.5378 22.3366 54.4688 22.2637C54.401 22.1908 54.2949 22.1543 54.1504 22.1543C54.0332 22.1543 53.9303 22.1855 53.8418 22.248C53.7533 22.3105 53.6842 22.3926 53.6348 22.4941V24H53.2734V21H53.6348V22.1426ZM56.3668 21.375V21.8867H56.7613V22.166H56.3668V23.4766C56.3668 23.5612 56.3844 23.625 56.4195 23.668C56.4547 23.7096 56.5146 23.7305 56.5992 23.7305C56.6409 23.7305 56.6982 23.7227 56.7711 23.707V24C56.676 24.026 56.5836 24.0391 56.4938 24.0391C56.3323 24.0391 56.2105 23.9902 56.1285 23.8926C56.0465 23.7949 56.0055 23.6562 56.0055 23.4766V22.166H55.6207V21.8867H56.0055V21.375H56.3668ZM58.0754 21.375V21.8867H58.4699V22.166H58.0754V23.4766C58.0754 23.5612 58.093 23.625 58.1281 23.668C58.1633 23.7096 58.2232 23.7305 58.3078 23.7305C58.3495 23.7305 58.4068 23.7227 58.4797 23.707V24C58.3846 24.026 58.2922 24.0391 58.2023 24.0391C58.0409 24.0391 57.9191 23.9902 57.8371 23.8926C57.7551 23.7949 57.7141 23.6562 57.7141 23.4766V22.166H57.3293V21.8867H57.7141V21.375H58.0754ZM61.0789 22.9668C61.0789 23.2884 61.0053 23.5475 60.8582 23.7441C60.7111 23.9408 60.5118 24.0391 60.2605 24.0391C60.004 24.0391 59.8022 23.9577 59.6551 23.7949V24.8125H59.2937V21.8867H59.6238L59.6414 22.1211C59.7885 21.9388 59.993 21.8477 60.2547 21.8477C60.5086 21.8477 60.7091 21.9434 60.8562 22.1348C61.0047 22.3262 61.0789 22.5924 61.0789 22.9336V22.9668ZM60.7176 22.9258C60.7176 22.6875 60.6668 22.4993 60.5652 22.3613C60.4637 22.2233 60.3243 22.1543 60.1473 22.1543C59.9285 22.1543 59.7645 22.2513 59.6551 22.4453V23.4551C59.7632 23.6478 59.9285 23.7441 60.1512 23.7441C60.3243 23.7441 60.4617 23.6758 60.5633 23.5391C60.6661 23.401 60.7176 23.1966 60.7176 22.9258ZM63.1703 23.4395C63.1703 23.3418 63.1332 23.2663 63.059 23.2129C62.9861 23.1582 62.8578 23.1113 62.6742 23.0723C62.4919 23.0332 62.3467 22.9863 62.2387 22.9316C62.1319 22.877 62.0525 22.8118 62.0004 22.7363C61.9496 22.6608 61.9242 22.571 61.9242 22.4668C61.9242 22.2936 61.9971 22.1471 62.143 22.0273C62.2901 21.9076 62.4776 21.8477 62.7055 21.8477C62.9451 21.8477 63.1391 21.9095 63.2875 22.0332C63.4372 22.1569 63.5121 22.3151 63.5121 22.5078H63.1488C63.1488 22.4089 63.1065 22.3236 63.0219 22.252C62.9385 22.1803 62.8331 22.1445 62.7055 22.1445C62.574 22.1445 62.4711 22.1732 62.3969 22.2305C62.3227 22.2878 62.2855 22.3626 62.2855 22.4551C62.2855 22.5423 62.3201 22.6081 62.3891 22.6523C62.4581 22.6966 62.5824 22.7389 62.7621 22.7793C62.9431 22.8197 63.0896 22.8678 63.2016 22.9238C63.3135 22.9798 63.3962 23.0475 63.4496 23.127C63.5043 23.2051 63.5316 23.3008 63.5316 23.4141C63.5316 23.6029 63.4561 23.7546 63.3051 23.8691C63.154 23.9824 62.9581 24.0391 62.7172 24.0391C62.5479 24.0391 62.3982 24.0091 62.268 23.9492C62.1378 23.8893 62.0355 23.806 61.9613 23.6992C61.8884 23.5911 61.852 23.4746 61.852 23.3496H62.2133C62.2198 23.4707 62.268 23.5671 62.3578 23.6387C62.449 23.709 62.5688 23.7441 62.7172 23.7441C62.8539 23.7441 62.9633 23.7168 63.0453 23.6621C63.1286 23.6061 63.1703 23.5319 63.1703 23.4395ZM64.3906 23.8105C64.3906 23.748 64.4089 23.696 64.4453 23.6543C64.4831 23.6126 64.5391 23.5918 64.6133 23.5918C64.6875 23.5918 64.7435 23.6126 64.7812 23.6543C64.8203 23.696 64.8398 23.748 64.8398 23.8105C64.8398 23.8704 64.8203 23.9206 64.7812 23.9609C64.7435 24.0013 64.6875 24.0215 64.6133 24.0215C64.5391 24.0215 64.4831 24.0013 64.4453 23.9609C64.4089 23.9206 64.3906 23.8704 64.3906 23.8105ZM64.3926 22.0859C64.3926 22.0234 64.4108 21.9714 64.4473 21.9297C64.485 21.888 64.541 21.8672 64.6152 21.8672C64.6895 21.8672 64.7454 21.888 64.7832 21.9297C64.8223 21.9714 64.8418 22.0234 64.8418 22.0859C64.8418 22.1458 64.8223 22.196 64.7832 22.2363C64.7454 22.2767 64.6895 22.2969 64.6152 22.2969C64.541 22.2969 64.485 22.2767 64.4473 22.2363C64.4108 22.196 64.3926 22.1458 64.3926 22.0859ZM65.8434 24.2441H65.5328L66.7203 21.1562H67.0289L65.8434 24.2441ZM67.4543 24.2441H67.1438L68.3313 21.1562H68.6398L67.4543 24.2441ZM71.3016 23.502L71.7078 21.8867H72.0691L71.4539 24H71.1609L70.6473 22.3984L70.1473 24H69.8543L69.241 21.8867H69.6004L70.0164 23.4688L70.5086 21.8867H70.7996L71.3016 23.502ZM74.7094 23.502L75.1156 21.8867H75.477L74.8617 24H74.5688L74.0551 22.3984L73.5551 24H73.2621L72.6488 21.8867H73.0082L73.4242 23.4688L73.9164 21.8867H74.2074L74.7094 23.502ZM78.1172 23.502L78.5234 21.8867H78.8848L78.2695 24H77.9766L77.4629 22.3984L76.9629 24H76.6699L76.0566 21.8867H76.416L76.832 23.4688L77.3242 21.8867H77.6152L78.1172 23.502ZM79.4195 23.8105C79.4195 23.748 79.4378 23.696 79.4742 23.6543C79.512 23.6126 79.568 23.5918 79.6422 23.5918C79.7164 23.5918 79.7724 23.6126 79.8102 23.6543C79.8492 23.696 79.8687 23.748 79.8687 23.8105C79.8687 23.8704 79.8492 23.9206 79.8102 23.9609C79.7724 24.0013 79.7164 24.0215 79.6422 24.0215C79.568 24.0215 79.512 24.0013 79.4742 23.9609C79.4378 23.9206 79.4195 23.8704 79.4195 23.8105ZM81.0441 24V22.166H80.7102V21.8867H81.0441V21.6699C81.0441 21.4434 81.1047 21.2682 81.2258 21.1445C81.3469 21.0208 81.5181 20.959 81.7395 20.959C81.8228 20.959 81.9055 20.9701 81.9875 20.9922L81.968 21.2852C81.9068 21.2734 81.8417 21.2676 81.7727 21.2676C81.6555 21.2676 81.565 21.3021 81.5012 21.3711C81.4374 21.4388 81.4055 21.5365 81.4055 21.6641V21.8867H81.8566V22.166H81.4055V24H81.0441ZM83.6785 22.2109C83.6238 22.2018 83.5646 22.1973 83.5008 22.1973C83.2638 22.1973 83.103 22.2982 83.0184 22.5V24H82.657V21.8867H83.0086L83.0145 22.1309C83.1329 21.9421 83.3009 21.8477 83.5184 21.8477C83.5887 21.8477 83.6421 21.8568 83.6785 21.875V22.2109ZM85.2504 24.0391C84.9639 24.0391 84.7309 23.9453 84.5512 23.7578C84.3715 23.569 84.2816 23.3171 84.2816 23.002V22.9355C84.2816 22.7259 84.3214 22.5391 84.4008 22.375C84.4815 22.2096 84.5935 22.0807 84.7367 21.9883C84.8813 21.8945 85.0375 21.8477 85.2055 21.8477C85.4802 21.8477 85.6938 21.9382 85.8461 22.1191C85.9984 22.3001 86.0746 22.5592 86.0746 22.8965V23.0469H84.643C84.6482 23.2552 84.7087 23.4238 84.8246 23.5527C84.9418 23.6803 85.0902 23.7441 85.2699 23.7441C85.3975 23.7441 85.5056 23.7181 85.5941 23.666C85.6827 23.6139 85.7602 23.5449 85.8266 23.459L86.0473 23.6309C85.8702 23.903 85.6046 24.0391 85.2504 24.0391ZM85.2055 22.1445C85.0596 22.1445 84.9372 22.1979 84.8383 22.3047C84.7393 22.4102 84.6781 22.5586 84.6547 22.75H85.7133V22.7227C85.7029 22.5391 85.6534 22.3971 85.5648 22.2969C85.4763 22.1953 85.3565 22.1445 85.2055 22.1445ZM87.7715 24.0391C87.485 24.0391 87.252 23.9453 87.0723 23.7578C86.8926 23.569 86.8027 23.3171 86.8027 23.002V22.9355C86.8027 22.7259 86.8424 22.5391 86.9219 22.375C87.0026 22.2096 87.1146 22.0807 87.2578 21.9883C87.4023 21.8945 87.5586 21.8477 87.7266 21.8477C88.0013 21.8477 88.2148 21.9382 88.3672 22.1191C88.5195 22.3001 88.5957 22.5592 88.5957 22.8965V23.0469H87.1641C87.1693 23.2552 87.2298 23.4238 87.3457 23.5527C87.4629 23.6803 87.6113 23.7441 87.791 23.7441C87.9186 23.7441 88.0267 23.7181 88.1152 23.666C88.2038 23.6139 88.2812 23.5449 88.3477 23.459L88.5684 23.6309C88.3913 23.903 88.1257 24.0391 87.7715 24.0391ZM87.7266 22.1445C87.5807 22.1445 87.4583 22.1979 87.3594 22.3047C87.2604 22.4102 87.1992 22.5586 87.1758 22.75H88.2344V22.7227C88.224 22.5391 88.1745 22.3971 88.0859 22.2969C87.9974 22.1953 87.8776 22.1445 87.7266 22.1445ZM91.2008 22.9668C91.2008 23.2884 91.1272 23.5475 90.9801 23.7441C90.8329 23.9408 90.6337 24.0391 90.3824 24.0391C90.1259 24.0391 89.9241 23.9577 89.777 23.7949V24.8125H89.4156V21.8867H89.7457L89.7633 22.1211C89.9104 21.9388 90.1148 21.8477 90.3766 21.8477C90.6305 21.8477 90.831 21.9434 90.9781 22.1348C91.1266 22.3262 91.2008 22.5924 91.2008 22.9336V22.9668ZM90.8395 22.9258C90.8395 22.6875 90.7887 22.4993 90.6871 22.3613C90.5855 22.2233 90.4462 22.1543 90.2691 22.1543C90.0504 22.1543 89.8863 22.2513 89.777 22.4453V23.4551C89.885 23.6478 90.0504 23.7441 90.273 23.7441C90.4462 23.7441 90.5836 23.6758 90.6852 23.5391C90.788 23.401 90.8395 23.1966 90.8395 22.9258ZM92.4543 24H92.093V21.8867H92.4543V24ZM92.0637 21.3262C92.0637 21.2676 92.0812 21.2181 92.1164 21.1777C92.1529 21.1374 92.2062 21.1172 92.2766 21.1172C92.3469 21.1172 92.4003 21.1374 92.4367 21.1777C92.4732 21.2181 92.4914 21.2676 92.4914 21.3262C92.4914 21.3848 92.4732 21.4336 92.4367 21.4727C92.4003 21.5117 92.3469 21.5312 92.2766 21.5312C92.2062 21.5312 92.1529 21.5117 92.1164 21.4727C92.0812 21.4336 92.0637 21.3848 92.0637 21.3262ZM94.0242 23.0215L93.7977 23.2578V24H93.4363V21H93.7977V22.8145L93.991 22.582L94.6492 21.8867H95.0887L94.2664 22.7695L95.1844 24H94.7605L94.0242 23.0215ZM95.8695 23.8105C95.8695 23.748 95.8878 23.696 95.9242 23.6543C95.962 23.6126 96.018 23.5918 96.0922 23.5918C96.1664 23.5918 96.2224 23.6126 96.2602 23.6543C96.2992 23.696 96.3187 23.748 96.3187 23.8105C96.3187 23.8704 96.2992 23.9206 96.2602 23.9609C96.2224 24.0013 96.1664 24.0215 96.0922 24.0215C96.018 24.0215 95.962 24.0013 95.9242 23.9609C95.8878 23.9206 95.8695 23.8704 95.8695 23.8105ZM98.1641 23.7441C98.293 23.7441 98.4056 23.7051 98.502 23.627C98.5983 23.5488 98.6517 23.4512 98.6621 23.334H99.0039C98.9974 23.4551 98.9557 23.5703 98.8789 23.6797C98.8021 23.7891 98.6992 23.8763 98.5703 23.9414C98.4427 24.0065 98.3073 24.0391 98.1641 24.0391C97.8763 24.0391 97.6471 23.9434 97.4766 23.752C97.3073 23.5592 97.2227 23.2962 97.2227 22.9629V22.9023C97.2227 22.6966 97.2604 22.5137 97.3359 22.3535C97.4115 22.1934 97.5195 22.069 97.6602 21.9805C97.8021 21.8919 97.9694 21.8477 98.1621 21.8477C98.3991 21.8477 98.5957 21.9186 98.752 22.0605C98.9095 22.2025 98.9935 22.3867 99.0039 22.6133H98.6621C98.6517 22.4766 98.5996 22.3646 98.5059 22.2773C98.4134 22.1888 98.2988 22.1445 98.1621 22.1445C97.9785 22.1445 97.8359 22.2109 97.7344 22.3438C97.6341 22.4753 97.584 22.666 97.584 22.916V22.9844C97.584 23.2279 97.6341 23.4154 97.7344 23.5469C97.8346 23.6784 97.9779 23.7441 98.1641 23.7441ZM99.7145 22.9238C99.7145 22.7168 99.7548 22.5306 99.8355 22.3652C99.9176 22.1999 100.031 22.0723 100.175 21.9824C100.321 21.8926 100.487 21.8477 100.673 21.8477C100.961 21.8477 101.194 21.9473 101.371 22.1465C101.549 22.3457 101.638 22.6107 101.638 22.9414V22.9668C101.638 23.1725 101.599 23.3574 101.519 23.5215C101.441 23.6842 101.328 23.8112 101.181 23.9023C101.035 23.9935 100.867 24.0391 100.677 24.0391C100.391 24.0391 100.158 23.9395 99.9801 23.7402C99.803 23.541 99.7145 23.2773 99.7145 22.9492V22.9238ZM100.078 22.9668C100.078 23.2012 100.132 23.3893 100.24 23.5312C100.349 23.6732 100.495 23.7441 100.677 23.7441C100.861 23.7441 101.007 23.6725 101.115 23.5293C101.223 23.3848 101.277 23.1829 101.277 22.9238C101.277 22.6921 101.222 22.5046 101.111 22.3613C101.002 22.2168 100.856 22.1445 100.673 22.1445C100.495 22.1445 100.351 22.2155 100.242 22.3574C100.132 22.4993 100.078 22.7025 100.078 22.9668ZM102.831 21.8867L102.841 22.1211C102.996 21.9388 103.205 21.8477 103.468 21.8477C103.764 21.8477 103.965 21.9609 104.071 22.1875C104.142 22.0859 104.233 22.0039 104.345 21.9414C104.458 21.8789 104.592 21.8477 104.745 21.8477C105.209 21.8477 105.445 22.0931 105.452 22.584V24H105.091V22.6055C105.091 22.4544 105.057 22.3418 104.987 22.2676C104.918 22.1921 104.803 22.1543 104.64 22.1543C104.506 22.1543 104.394 22.1947 104.306 22.2754C104.217 22.3548 104.166 22.4622 104.152 22.5977V24H103.788V22.6152C103.788 22.3079 103.638 22.1543 103.337 22.1543C103.1 22.1543 102.938 22.2552 102.851 22.457V24H102.489V21.8867H102.831ZM106.471 24.2441H106.161L107.348 21.1562H107.657L106.471 24.2441ZM108.625 24V22.166H108.291V21.8867H108.625V21.6699C108.625 21.4434 108.686 21.2682 108.807 21.1445C108.928 21.0208 109.099 20.959 109.321 20.959C109.404 20.959 109.487 20.9701 109.569 20.9922L109.549 21.2852C109.488 21.2734 109.423 21.2676 109.354 21.2676C109.237 21.2676 109.146 21.3021 109.082 21.3711C109.019 21.4388 108.987 21.5365 108.987 21.6641V21.8867H109.438V22.166H108.987V24H108.625ZM111.26 22.2109C111.205 22.2018 111.146 22.1973 111.082 22.1973C110.845 22.1973 110.684 22.2982 110.6 22.5V24H110.238V21.8867H110.59L110.596 22.1309C110.714 21.9421 110.882 21.8477 111.1 21.8477C111.17 21.8477 111.223 21.8568 111.26 21.875V22.2109ZM112.832 24.0391C112.545 24.0391 112.312 23.9453 112.132 23.7578C111.953 23.569 111.863 23.3171 111.863 23.002V22.9355C111.863 22.7259 111.903 22.5391 111.982 22.375C112.063 22.2096 112.175 22.0807 112.318 21.9883C112.463 21.8945 112.619 21.8477 112.787 21.8477C113.061 21.8477 113.275 21.9382 113.427 22.1191C113.58 22.3001 113.656 22.5592 113.656 22.8965V23.0469H112.224C112.229 23.2552 112.29 23.4238 112.406 23.5527C112.523 23.6803 112.671 23.7441 112.851 23.7441C112.979 23.7441 113.087 23.7181 113.175 23.666C113.264 23.6139 113.341 23.5449 113.408 23.459L113.629 23.6309C113.451 23.903 113.186 24.0391 112.832 24.0391ZM112.787 22.1445C112.641 22.1445 112.518 22.1979 112.42 22.3047C112.321 22.4102 112.259 22.5586 112.236 22.75H113.295V22.7227C113.284 22.5391 113.235 22.3971 113.146 22.2969C113.058 22.1953 112.938 22.1445 112.787 22.1445ZM115.353 24.0391C115.066 24.0391 114.833 23.9453 114.654 23.7578C114.474 23.569 114.384 23.3171 114.384 23.002V22.9355C114.384 22.7259 114.424 22.5391 114.503 22.375C114.584 22.2096 114.696 22.0807 114.839 21.9883C114.984 21.8945 115.14 21.8477 115.308 21.8477C115.583 21.8477 115.796 21.9382 115.948 22.1191C116.101 22.3001 116.177 22.5592 116.177 22.8965V23.0469H114.745C114.751 23.2552 114.811 23.4238 114.927 23.5527C115.044 23.6803 115.193 23.7441 115.372 23.7441C115.5 23.7441 115.608 23.7181 115.696 23.666C115.785 23.6139 115.862 23.5449 115.929 23.459L116.15 23.6309C115.973 23.903 115.707 24.0391 115.353 24.0391ZM115.308 22.1445C115.162 22.1445 115.04 22.1979 114.941 22.3047C114.842 22.4102 114.78 22.5586 114.757 22.75H115.816V22.7227C115.805 22.5391 115.756 22.3971 115.667 22.2969C115.579 22.1953 115.459 22.1445 115.308 22.1445ZM117.749 22.9395H116.796V22.6445H117.749V22.9395ZM119.2 23.5098L119.723 21.8867H120.092L119.334 24H119.059L118.293 21.8867H118.662L119.2 23.5098ZM121.689 24.0391C121.403 24.0391 121.17 23.9453 120.99 23.7578C120.811 23.569 120.721 23.3171 120.721 23.002V22.9355C120.721 22.7259 120.76 22.5391 120.84 22.375C120.921 22.2096 121.033 22.0807 121.176 21.9883C121.32 21.8945 121.477 21.8477 121.645 21.8477C121.919 21.8477 122.133 21.9382 122.285 22.1191C122.438 22.3001 122.514 22.5592 122.514 22.8965V23.0469H121.082C121.087 23.2552 121.148 23.4238 121.264 23.5527C121.381 23.6803 121.529 23.7441 121.709 23.7441C121.837 23.7441 121.945 23.7181 122.033 23.666C122.122 23.6139 122.199 23.5449 122.266 23.459L122.486 23.6309C122.309 23.903 122.044 24.0391 121.689 24.0391ZM121.645 22.1445C121.499 22.1445 121.376 22.1979 121.277 22.3047C121.178 22.4102 121.117 22.5586 121.094 22.75H122.152V22.7227C122.142 22.5391 122.092 22.3971 122.004 22.2969C121.915 22.1953 121.796 22.1445 121.645 22.1445ZM124.181 23.7441C124.31 23.7441 124.423 23.7051 124.519 23.627C124.615 23.5488 124.669 23.4512 124.679 23.334H125.021C125.015 23.4551 124.973 23.5703 124.896 23.6797C124.819 23.7891 124.716 23.8763 124.588 23.9414C124.46 24.0065 124.324 24.0391 124.181 24.0391C123.893 24.0391 123.664 23.9434 123.494 23.752C123.324 23.5592 123.24 23.2962 123.24 22.9629V22.9023C123.24 22.6966 123.278 22.5137 123.353 22.3535C123.429 22.1934 123.537 22.069 123.677 21.9805C123.819 21.8919 123.987 21.8477 124.179 21.8477C124.416 21.8477 124.613 21.9186 124.769 22.0605C124.927 22.2025 125.011 22.3867 125.021 22.6133H124.679C124.669 22.4766 124.617 22.3646 124.523 22.2773C124.431 22.1888 124.316 22.1445 124.179 22.1445C123.996 22.1445 123.853 22.2109 123.752 22.3438C123.651 22.4753 123.601 22.666 123.601 22.916V22.9844C123.601 23.2279 123.651 23.4154 123.752 23.5469C123.852 23.6784 123.995 23.7441 124.181 23.7441ZM126.318 21.375V21.8867H126.712V22.166H126.318V23.4766C126.318 23.5612 126.335 23.625 126.37 23.668C126.405 23.7096 126.465 23.7305 126.55 23.7305C126.592 23.7305 126.649 23.7227 126.722 23.707V24C126.627 24.026 126.534 24.0391 126.445 24.0391C126.283 24.0391 126.161 23.9902 126.079 23.8926C125.997 23.7949 125.956 23.6562 125.956 23.4766V22.166H125.571V21.8867H125.956V21.375H126.318ZM127.401 22.9238C127.401 22.7168 127.442 22.5306 127.522 22.3652C127.604 22.1999 127.718 22.0723 127.862 21.9824C128.008 21.8926 128.174 21.8477 128.36 21.8477C128.648 21.8477 128.88 21.9473 129.057 22.1465C129.236 22.3457 129.325 22.6107 129.325 22.9414V22.9668C129.325 23.1725 129.285 23.3574 129.206 23.5215C129.128 23.6842 129.015 23.8112 128.868 23.9023C128.722 23.9935 128.554 24.0391 128.364 24.0391C128.078 24.0391 127.845 23.9395 127.667 23.7402C127.49 23.541 127.401 23.2773 127.401 22.9492V22.9238ZM127.764 22.9668C127.764 23.2012 127.818 23.3893 127.927 23.5312C128.036 23.6732 128.182 23.7441 128.364 23.7441C128.548 23.7441 128.693 23.6725 128.802 23.5293C128.91 23.3848 128.964 23.1829 128.964 22.9238C128.964 22.6921 128.908 22.5046 128.798 22.3613C128.688 22.2168 128.542 22.1445 128.36 22.1445C128.182 22.1445 128.038 22.2155 127.929 22.3574C127.819 22.4993 127.764 22.7025 127.764 22.9668ZM131.2 22.2109C131.145 22.2018 131.086 22.1973 131.022 22.1973C130.785 22.1973 130.624 22.2982 130.539 22.5V24H130.178V21.8867H130.53L130.536 22.1309C130.654 21.9421 130.822 21.8477 131.039 21.8477C131.11 21.8477 131.163 21.8568 131.2 21.875V22.2109ZM132.006 24.2441H131.695L132.883 21.1562H133.191L132.006 24.2441ZM134.859 24.0391C134.573 24.0391 134.339 23.9453 134.16 23.7578C133.98 23.569 133.89 23.3171 133.89 23.002V22.9355C133.89 22.7259 133.93 22.5391 134.009 22.375C134.09 22.2096 134.202 22.0807 134.345 21.9883C134.49 21.8945 134.646 21.8477 134.814 21.8477C135.089 21.8477 135.302 21.9382 135.455 22.1191C135.607 22.3001 135.683 22.5592 135.683 22.8965V23.0469H134.252C134.257 23.2552 134.317 23.4238 134.433 23.5527C134.55 23.6803 134.699 23.7441 134.879 23.7441C135.006 23.7441 135.114 23.7181 135.203 23.666C135.291 23.6139 135.369 23.5449 135.435 23.459L135.656 23.6309C135.479 23.903 135.213 24.0391 134.859 24.0391ZM134.814 22.1445C134.668 22.1445 134.546 22.1979 134.447 22.3047C134.348 22.4102 134.287 22.5586 134.263 22.75H135.322V22.7227C135.311 22.5391 135.262 22.3971 135.173 22.2969C135.085 22.1953 134.965 22.1445 134.814 22.1445ZM136.843 21.8867L136.853 22.1211C137.008 21.9388 137.217 21.8477 137.48 21.8477C137.775 21.8477 137.976 21.9609 138.083 22.1875C138.154 22.0859 138.245 22.0039 138.357 21.9414C138.47 21.8789 138.603 21.8477 138.757 21.8477C139.221 21.8477 139.456 22.0931 139.464 22.584V24H139.103V22.6055C139.103 22.4544 139.068 22.3418 138.999 22.2676C138.93 22.1921 138.814 22.1543 138.652 22.1543C138.517 22.1543 138.406 22.1947 138.318 22.2754C138.229 22.3548 138.178 22.4622 138.163 22.5977V24H137.8V22.6152C137.8 22.3079 137.65 22.1543 137.349 22.1543C137.112 22.1543 136.95 22.2552 136.863 22.457V24H136.501V21.8867H136.843ZM142.196 22.9668C142.196 23.2884 142.123 23.5475 141.975 23.7441C141.828 23.9408 141.629 24.0391 141.378 24.0391C141.121 24.0391 140.919 23.9577 140.772 23.7949V24.8125H140.411V21.8867H140.741L140.759 22.1211C140.906 21.9388 141.11 21.8477 141.372 21.8477C141.626 21.8477 141.826 21.9434 141.973 22.1348C142.122 22.3262 142.196 22.5924 142.196 22.9336V22.9668ZM141.835 22.9258C141.835 22.6875 141.784 22.4993 141.682 22.3613C141.581 22.2233 141.442 22.1543 141.264 22.1543C141.046 22.1543 140.882 22.2513 140.772 22.4453V23.4551C140.88 23.6478 141.046 23.7441 141.268 23.7441C141.442 23.7441 141.579 23.6758 141.68 23.5391C141.783 23.401 141.835 23.1966 141.835 22.9258ZM143.547 21.375V21.8867H143.942V22.166H143.547V23.4766C143.547 23.5612 143.565 23.625 143.6 23.668C143.635 23.7096 143.695 23.7305 143.78 23.7305C143.821 23.7305 143.879 23.7227 143.952 23.707V24C143.857 24.026 143.764 24.0391 143.674 24.0391C143.513 24.0391 143.391 23.9902 143.309 23.8926C143.227 23.7949 143.186 23.6562 143.186 23.4766V22.166H142.801V21.8867H143.186V21.375H143.547ZM145.457 23.4707L145.949 21.8867H146.336L145.486 24.3262C145.355 24.6777 145.146 24.8535 144.859 24.8535L144.791 24.8477L144.656 24.8223V24.5293L144.754 24.5371C144.876 24.5371 144.971 24.5124 145.039 24.4629C145.108 24.4134 145.165 24.3229 145.209 24.1914L145.289 23.9766L144.535 21.8867H144.93L145.457 23.4707Z" fill="white"/>
<path d="M46.0625 22.2656H45.7305V21.1719C45.7305 20.8267 45.4507 20.5469 45.1055 20.5469H43.8945C43.5493 20.5469 43.2695 20.8267 43.2695 21.1719V22.2656H42.9375C42.8511 22.2656 42.7812 22.3354 42.7812 22.4219V24.2969C42.7812 24.3833 42.8511 24.4531 42.9375 24.4531H46.0625C46.1489 24.4531 46.2188 24.3833 46.2188 24.2969V22.4219C46.2188 22.3354 46.1489 22.2656 46.0625 22.2656ZM44.6367 23.4229V23.6816C44.6367 23.7031 44.6191 23.7207 44.5977 23.7207H44.4023C44.3809 23.7207 44.3633 23.7031 44.3633 23.6816V23.4229C44.323 23.3939 44.2929 23.3529 44.2774 23.3058C44.2618 23.2587 44.2616 23.2078 44.2768 23.1606C44.292 23.1134 44.3218 23.0722 44.3619 23.043C44.402 23.0137 44.4504 22.998 44.5 22.998C44.5496 22.998 44.598 23.0137 44.6381 23.043C44.6782 23.0722 44.708 23.1134 44.7232 23.1606C44.7384 23.2078 44.7382 23.2587 44.7226 23.3058C44.7071 23.3529 44.677 23.3939 44.6367 23.4229ZM45.3789 22.2656H43.6211V21.1719C43.6211 21.021 43.7437 20.8984 43.8945 20.8984H45.1055C45.2563 20.8984 45.3789 21.021 45.3789 21.1719V22.2656Z" fill="#D0D0D0"/>
<path d="M214.934 23.6171L215.604 23.266L216.275 23.6171L216.146 22.8733L216.689 22.3469L215.939 22.2385L215.604 21.5617L215.269 22.2381L214.519 22.3465L215.062 22.8733L214.934 23.6171ZM215.604 23.7344L214.381 24.375L214.615 23.0183L213.625 22.0573L214.993 21.8594L215.604 20.625L216.216 21.8594L217.583 22.0573L216.594 23.0183L216.827 24.375L215.604 23.7344Z" fill="#D0D0D0"/>
<path d="M23.6044 22.1875H24.8331C24.848 22.1875 24.8625 22.1918 24.875 22.1997C24.8876 22.2077 24.8975 22.2191 24.9038 22.2325C24.9101 22.246 24.9125 22.2609 24.9106 22.2757C24.9087 22.2904 24.9026 22.3043 24.8931 22.3157L24.2787 23.0532C24.2714 23.062 24.2622 23.069 24.2519 23.0739C24.2415 23.0787 24.2302 23.0813 24.2187 23.0813C24.2073 23.0813 24.196 23.0787 24.1856 23.0739C24.1753 23.069 24.1661 23.062 24.1587 23.0532L23.5444 22.3157C23.5349 22.3043 23.5288 22.2904 23.5269 22.2757C23.525 22.2609 23.5274 22.246 23.5336 22.2325C23.5399 22.2191 23.5499 22.2077 23.5625 22.1997C23.575 22.1918 23.5895 22.1875 23.6044 22.1875ZM20.1669 22.8125H21.3956C21.4105 22.8125 21.425 22.8083 21.4375 22.8003C21.4501 22.7924 21.46 22.781 21.4663 22.7675C21.4726 22.7541 21.475 22.7391 21.4731 22.7244C21.4712 22.7097 21.4651 22.6958 21.4556 22.6844L20.8412 21.9469C20.8339 21.9381 20.8247 21.931 20.8144 21.9262C20.804 21.9213 20.7927 21.9188 20.7812 21.9188C20.7698 21.9188 20.7585 21.9213 20.7481 21.9262C20.7378 21.931 20.7286 21.9381 20.7212 21.9469L20.1069 22.6844C20.0974 22.6958 20.0913 22.7097 20.0894 22.7244C20.0875 22.7391 20.0899 22.7541 20.0961 22.7675C20.1024 22.781 20.1124 22.7924 20.125 22.8003C20.1375 22.8083 20.152 22.8125 20.1669 22.8125Z" fill="#D0D0D0"/>
<path fill-rule="evenodd" clip-rule="evenodd" d="M22.5 20.9375C22.015 20.9375 21.5813 21.1585 21.2947 21.5057C21.2819 21.5223 21.2659 21.5361 21.2476 21.5464C21.2294 21.5567 21.2093 21.5632 21.1884 21.5655C21.1676 21.5678 21.1465 21.566 21.1265 21.56C21.1064 21.554 21.0877 21.5441 21.0716 21.5308C21.0554 21.5174 21.0421 21.501 21.0324 21.4824C21.0227 21.4638 21.0169 21.4435 21.0152 21.4226C21.0136 21.4017 21.0161 21.3807 21.0227 21.3608C21.0294 21.341 21.0399 21.3226 21.0538 21.3069C21.2826 21.0299 21.5861 20.8244 21.9283 20.7149C22.2705 20.6054 22.637 20.5966 22.9841 20.6893C23.3312 20.7821 23.6444 20.9726 23.8864 21.2382C24.1284 21.5038 24.2889 21.8333 24.3491 22.1875H24.0313C23.9591 21.8347 23.7673 21.5175 23.4883 21.2898C23.2093 21.062 22.8602 20.9376 22.5 20.9375ZM20.9688 22.8125C21.0279 23.1015 21.1676 23.3678 21.3717 23.5807C21.5758 23.7936 21.836 23.9444 22.1222 24.0158C22.4084 24.0871 22.7089 24.076 22.989 23.9837C23.2692 23.8914 23.5175 23.7218 23.7053 23.4944C23.7181 23.4778 23.7341 23.464 23.7524 23.4537C23.7706 23.4434 23.7908 23.4369 23.8116 23.4346C23.8324 23.4323 23.8535 23.4341 23.8735 23.4401C23.8936 23.4461 23.9123 23.456 23.9285 23.4693C23.9446 23.4827 23.9579 23.4991 23.9676 23.5177C23.9773 23.5363 23.9831 23.5566 23.9848 23.5775C23.9864 23.5984 23.9839 23.6194 23.9773 23.6392C23.9707 23.6591 23.9601 23.6775 23.9463 23.6932C23.7174 23.9702 23.4139 24.1757 23.0717 24.2851C22.7295 24.3946 22.363 24.4035 22.0159 24.3108C21.6688 24.218 21.3556 24.0275 21.1136 23.7619C20.8717 23.4963 20.7111 23.1668 20.6509 22.8125H20.9688Z" fill="#D0D0D0"/>
<path fill-rule="evenodd" clip-rule="evenodd" d="M12.25 22.5C12.25 22.4585 12.2665 22.4188 12.2958 22.3895C12.3251 22.3602 12.3648 22.3437 12.4062 22.3437H14.2166L13.5456 21.6731C13.5163 21.6437 13.4998 21.6039 13.4998 21.5625C13.4998 21.521 13.5163 21.4812 13.5456 21.4518C13.575 21.4225 13.6148 21.406 13.6562 21.406C13.6977 21.406 13.7375 21.4225 13.7669 21.4518L14.7044 22.3893C14.7189 22.4038 14.7305 22.4211 14.7383 22.4401C14.7462 22.4591 14.7503 22.4794 14.7503 22.5C14.7503 22.5205 14.7462 22.5409 14.7383 22.5598C14.7305 22.5788 14.7189 22.5961 14.7044 22.6106L13.7669 23.5481C13.7375 23.5774 13.6977 23.5939 13.6562 23.5939C13.6148 23.5939 13.575 23.5774 13.5456 23.5481C13.5163 23.5187 13.4998 23.4789 13.4998 23.4375C13.4998 23.396 13.5163 23.3562 13.5456 23.3268L14.2166 22.6562H12.4062C12.3648 22.6562 12.3251 22.6397 12.2958 22.6104C12.2665 22.5811 12.25 22.5414 12.25 22.5Z" fill="#DDDDDD"/>
<path fill-rule="evenodd" clip-rule="evenodd" d="M6.75 22.5C6.75 22.5415 6.73354 22.5812 6.70424 22.6105C6.67493 22.6398 6.63519 22.6563 6.59375 22.6563L4.78344 22.6563L5.45438 23.3269C5.48371 23.3563 5.5002 23.3961 5.5002 23.4375C5.5002 23.479 5.48371 23.5188 5.45438 23.5482C5.42504 23.5775 5.38524 23.594 5.34375 23.594C5.30226 23.594 5.26246 23.5775 5.23312 23.5482L4.29562 22.6107C4.28107 22.5962 4.26953 22.5789 4.26165 22.5599C4.25378 22.5409 4.24972 22.5206 4.24972 22.5C4.24972 22.4795 4.25378 22.4591 4.26165 22.4402C4.26953 22.4212 4.28107 22.4039 4.29562 22.3894L5.23312 21.4519C5.26246 21.4226 5.30226 21.4061 5.34375 21.4061C5.38524 21.4061 5.42504 21.4226 5.45437 21.4519C5.48371 21.4813 5.5002 21.5211 5.5002 21.5625C5.5002 21.604 5.48371 21.6438 5.45437 21.6732L4.78344 22.3438L6.59375 22.3438C6.63519 22.3438 6.67493 22.3603 6.70424 22.3896C6.73354 22.4189 6.75 22.4586 6.75 22.5Z" fill="#DDDDDD"/>
<path d="M33.6216 22.4658L31.7349 20.5801L31.6084 20.4536C31.5796 20.425 31.5406 20.4089 31.5 20.4089C31.4594 20.4089 31.4204 20.425 31.3916 20.4536L29.3784 22.4658C29.3489 22.4952 29.3255 22.5303 29.3098 22.5688C29.294 22.6074 29.2861 22.6488 29.2866 22.6904C29.2886 22.8623 29.4316 22.9995 29.6035 22.9995H29.811V24.5899H33.189V22.9995H33.4009C33.4844 22.9995 33.563 22.9668 33.6221 22.9077C33.6512 22.8787 33.6742 22.8442 33.6899 22.8063C33.7055 22.7683 33.7135 22.7276 33.7134 22.6865C33.7134 22.6035 33.6807 22.5249 33.6216 22.4658ZM31.7734 24.2383H31.2266V23.2422H31.7734V24.2383ZM32.8374 22.648V24.2383H32.0859V23.125C32.0859 23.0171 31.9985 22.9297 31.8906 22.9297H31.1094C31.0015 22.9297 30.9141 23.0171 30.9141 23.125V24.2383H30.1626V22.648H29.6938L31.5005 20.8428L31.6133 20.9556L33.3066 22.648H32.8374Z" fill="#DDDDDD"/>
</svg>
