<svg width="157" height="138" viewBox="0 0 157 138" fill="none" xmlns="http://www.w3.org/2000/svg">
<g clip-path="url(#clip0)">
<path d="M4.51001 0.540009H0.540009V4.51001H4.51001V0.540009Z" stroke="#8F9294" stroke-width="1.08" stroke-miterlimit="10"/>
<path d="M34.84 0.540009H30.87V4.51001H34.84V0.540009Z" stroke="#8F9294" stroke-width="1.08" stroke-miterlimit="10"/>
<path d="M65.18 0.540009H61.21V4.51001H65.18V0.540009Z" stroke="#8F9294" stroke-width="1.08" stroke-miterlimit="10"/>
<path d="M95.52 0.540009H91.55V4.51001H95.52V0.540009Z" stroke="#8F9294" stroke-width="1.08" stroke-miterlimit="10"/>
<path d="M125.85 0.540009H121.88V4.51001H125.85V0.540009Z" stroke="#8F9294" stroke-width="1.08" stroke-miterlimit="10"/>
<path d="M156.19 0.540009H152.22V4.51001H156.19V0.540009Z" stroke="#8F9294" stroke-width="1.08" stroke-miterlimit="10"/>
<path d="M4.51001 22.65H0.540009V26.62H4.51001V22.65Z" stroke="#8F9294" stroke-width="1.08" stroke-miterlimit="10"/>
<path d="M34.84 22.65H30.87V26.62H34.84V22.65Z" stroke="#5EDFFC" stroke-width="1.08" stroke-miterlimit="10"/>
<path d="M65.18 22.65H61.21V26.62H65.18V22.65Z" stroke="#8F9294" stroke-width="1.08" stroke-miterlimit="10"/>
<path d="M95.52 22.65H91.55V26.62H95.52V22.65Z" stroke="#8F9294" stroke-width="1.08" stroke-miterlimit="10"/>
<path d="M125.85 22.65H121.88V26.62H125.85V22.65Z" stroke="#8F9294" stroke-width="1.08" stroke-miterlimit="10"/>
<path d="M156.19 22.65H152.22V26.62H156.19V22.65Z" stroke="#8F9294" stroke-width="1.08" stroke-miterlimit="10"/>
<path d="M4.51001 44.77H0.540009V48.74H4.51001V44.77Z" stroke="#8F9294" stroke-width="1.08" stroke-miterlimit="10"/>
<path d="M34.84 44.77H30.87V48.74H34.84V44.77Z" stroke="#8F9294" stroke-width="1.08" stroke-miterlimit="10"/>
<path d="M65.18 44.77H61.21V48.74H65.18V44.77Z" stroke="#8F9294" stroke-width="1.08" stroke-miterlimit="10"/>
<path d="M95.52 44.77H91.55V48.74H95.52V44.77Z" stroke="#5EDFFC" stroke-width="1.08" stroke-miterlimit="10"/>
<path d="M125.85 44.77H121.88V48.74H125.85V44.77Z" stroke="#8F9294" stroke-width="1.08" stroke-miterlimit="10"/>
<path d="M156.19 44.77H152.22V48.74H156.19V44.77Z" stroke="#8F9294" stroke-width="1.08" stroke-miterlimit="10"/>
<path d="M4.51001 66.88H0.540009V70.85H4.51001V66.88Z" stroke="#8F9294" stroke-width="1.08" stroke-miterlimit="10"/>
<path d="M34.84 66.88H30.87V70.85H34.84V66.88Z" stroke="#8F9294" stroke-width="1.08" stroke-miterlimit="10"/>
<path d="M65.18 66.88H61.21V70.85H65.18V66.88Z" stroke="#8F9294" stroke-width="1.08" stroke-miterlimit="10"/>
<path d="M95.52 66.88H91.55V70.85H95.52V66.88Z" stroke="#8F9294" stroke-width="1.08" stroke-miterlimit="10"/>
<path d="M125.85 66.88H121.88V70.85H125.85V66.88Z" stroke="#8F9294" stroke-width="1.08" stroke-miterlimit="10"/>
<path d="M156.19 66.88H152.22V70.85H156.19V66.88Z" stroke="#8F9294" stroke-width="1.08" stroke-miterlimit="10"/>
<path d="M4.51001 88.99H0.540009V92.96H4.51001V88.99Z" stroke="#8F9294" stroke-width="1.08" stroke-miterlimit="10"/>
<path d="M34.84 88.99H30.87V92.96H34.84V88.99Z" stroke="#5EDFFC" stroke-width="1.08" stroke-miterlimit="10"/>
<path d="M65.18 88.99H61.21V92.96H65.18V88.99Z" stroke="#8F9294" stroke-width="1.08" stroke-miterlimit="10"/>
<path d="M95.52 88.99H91.55V92.96H95.52V88.99Z" stroke="#8F9294" stroke-width="1.08" stroke-miterlimit="10"/>
<path d="M125.85 88.99H121.88V92.96H125.85V88.99Z" stroke="#5EDFFC" stroke-width="1.08" stroke-miterlimit="10"/>
<path d="M156.19 88.99H152.22V92.96H156.19V88.99Z" stroke="#8F9294" stroke-width="1.08" stroke-miterlimit="10"/>
<path d="M4.51001 111.11H0.540009V115.08H4.51001V111.11Z" stroke="#8F9294" stroke-width="1.08" stroke-miterlimit="10"/>
<path d="M34.84 111.11H30.87V115.08H34.84V111.11Z" stroke="#8F9294" stroke-width="1.08" stroke-miterlimit="10"/>
<path d="M65.18 111.11H61.21V115.08H65.18V111.11Z" stroke="#8F9294" stroke-width="1.08" stroke-miterlimit="10"/>
<path d="M95.52 111.11H91.55V115.08H95.52V111.11Z" stroke="#5EDFFC" stroke-width="1.08" stroke-miterlimit="10"/>
<path d="M125.85 111.11H121.88V115.08H125.85V111.11Z" stroke="#8F9294" stroke-width="1.08" stroke-miterlimit="10"/>
<path d="M156.19 111.11H152.22V115.08H156.19V111.11Z" stroke="#8F9294" stroke-width="1.08" stroke-miterlimit="10"/>
<path d="M4.51001 133.22H0.540009V137.19H4.51001V133.22Z" stroke="#8F9294" stroke-width="1.08" stroke-miterlimit="10"/>
<path d="M34.84 133.22H30.87V137.19H34.84V133.22Z" stroke="#8F9294" stroke-width="1.08" stroke-miterlimit="10"/>
<path d="M65.18 133.22H61.21V137.19H65.18V133.22Z" stroke="#8F9294" stroke-width="1.08" stroke-miterlimit="10"/>
<path d="M95.52 133.22H91.55V137.19H95.52V133.22Z" stroke="#8F9294" stroke-width="1.08" stroke-miterlimit="10"/>
<path d="M125.85 133.22H121.88V137.19H125.85V133.22Z" stroke="#8F9294" stroke-width="1.08" stroke-miterlimit="10"/>
<path d="M156.19 133.22H152.22V137.19H156.19V133.22Z" stroke="#8F9294" stroke-width="1.08" stroke-miterlimit="10"/>
</g>
<defs>
<clipPath id="clip0">
<rect width="156.73" height="137.73" fill="white"/>
</clipPath>
</defs>
</svg>
