<svg width="250" height="241" viewBox="0 0 250 241" fill="none" xmlns="http://www.w3.org/2000/svg">
<circle cx="8.23236" cy="75.0397" r="6.5" stroke="#5EDFFC" stroke-width="2"/>
<circle cx="134.38" cy="232.679" r="6.5" stroke="#5EDFFC" stroke-width="2"/>
<g clip-path="url(#clip0)">
<path d="M199.593 -51.4803L61.3529 86.7597C61.9857 90.6826 62.8167 94.5709 63.8429 98.4097L211.243 -48.9903C207.404 -50.0165 203.516 -50.8475 199.593 -51.4803V-51.4803Z" stroke="#515151" stroke-width="1.08" stroke-miterlimit="10"/>
<path d="M211.243 -48.9903L63.843 98.4097C64.843 102.06 65.943 105.65 67.233 109.15L221.993 -45.5903C218.493 -46.8903 214.903 -48.0203 211.243 -48.9903Z" stroke="#515151" stroke-width="1.08" stroke-miterlimit="10"/>
<path d="M257.723 -24.7703L88.063 144.89C90.213 147.44 92.453 149.89 94.813 152.28L265.113 -18.0203C262.753 -20.3803 260.243 -22.5903 257.723 -24.7703Z" stroke="#515151" stroke-width="1.08" stroke-miterlimit="10"/>
<path d="M249.743 -30.9303L81.903 136.91C83.853 139.65 85.903 142.32 88.063 144.91L257.723 -24.7703C255.153 -26.9303 252.483 -28.9803 249.743 -30.9303Z" stroke="#515151" stroke-width="1.08" stroke-miterlimit="10"/>
<path d="M231.933 -41.4003L71.433 119.1C72.943 122.26 74.593 125.33 76.353 128.32L241.153 -36.4803C238.163 -38.2403 235.093 -39.8903 231.933 -41.4003Z" stroke="#515151" stroke-width="1.08" stroke-miterlimit="10"/>
<path d="M241.153 -36.4803L76.3529 128.32C78.0829 131.32 79.9429 134.13 81.9029 136.91L249.743 -30.9303C246.963 -32.8903 244.103 -34.7503 241.153 -36.4803Z" stroke="#515151" stroke-width="1.08" stroke-miterlimit="10"/>
<path d="M221.993 -45.5903L67.2429 109.16C68.5029 112.546 69.9029 115.86 71.4429 119.1L231.943 -41.4003C228.71 -42.9403 225.393 -44.337 221.993 -45.5903Z" stroke="#515151" stroke-width="1.08" stroke-miterlimit="10"/>
<path d="M68.063 23.4997L136.333 -44.7703C120.871 -38.6971 106.827 -29.4997 95.0803 -17.753C83.3336 -6.00623 74.1362 8.03726 68.063 23.4997V23.4997Z" stroke="#515151" stroke-width="1.08" stroke-miterlimit="10"/>
<path d="M136.333 -44.7703L68.063 23.4997C65.5146 29.9816 63.537 36.6737 62.153 43.4997L156.383 -50.6803C149.54 -49.299 142.831 -47.3215 136.333 -44.7703V-44.7703Z" stroke="#515151" stroke-width="1.08" stroke-miterlimit="10"/>
<path d="M186.843 -52.8603L59.9729 74.0097C60.2076 78.2811 60.6683 82.537 61.3529 86.7597L199.593 -51.4803C195.37 -52.1649 191.114 -52.6256 186.843 -52.8603V-52.8603Z" stroke="#515151" stroke-width="1.08" stroke-miterlimit="10"/>
<path d="M180.243 -53.0503C177.693 -53.0503 175.173 -52.9403 172.663 -52.7903L60.043 59.7997C59.893 62.3097 59.783 64.7997 59.783 67.3797C59.783 69.6097 59.853 71.8197 59.973 74.0097L186.843 -52.8603C184.653 -52.9803 182.443 -53.0503 180.243 -53.0503Z" stroke="#515151" stroke-width="1.08" stroke-miterlimit="10"/>
<path d="M156.383 -50.6803L62.153 43.5497C61.0775 48.9115 60.3725 54.341 60.043 59.7997L172.633 -52.7903C167.174 -52.4608 161.745 -51.7558 156.383 -50.6803V-50.6803Z" stroke="#515151" stroke-width="1.08" stroke-miterlimit="10"/>
<path d="M298.923 47.1397L159.973 186.14C164.171 186.851 168.403 187.338 172.653 187.6L300.383 59.8197C300.121 55.5702 299.634 51.3375 298.923 47.1397V47.1397Z" stroke="#515151" stroke-width="1.08" stroke-miterlimit="10"/>
<path d="M300.653 67.4097C300.653 64.8697 300.543 62.3497 300.383 59.8497L172.653 187.55C175.153 187.71 177.653 187.82 180.213 187.82C182.393 187.82 184.553 187.75 186.703 187.64L300.473 73.8697C300.583 71.7197 300.653 69.5597 300.653 67.4097Z" stroke="#515151" stroke-width="1.08" stroke-miterlimit="10"/>
<path d="M300.473 73.8697L186.703 187.64C192.112 187.337 197.494 186.669 202.813 185.64L298.503 89.9497C299.521 84.6401 300.179 79.2679 300.473 73.8697V73.8697Z" stroke="#515151" stroke-width="1.08" stroke-miterlimit="10"/>
<path d="M298.503 89.9797L202.813 185.67C209.496 184.401 216.06 182.568 222.433 180.19L293.023 109.6C295.401 103.226 297.234 96.6629 298.503 89.9797V89.9797Z" stroke="#515151" stroke-width="1.08" stroke-miterlimit="10"/>
<path d="M293.023 109.6L222.433 180.19C238.551 174.135 253.188 164.705 265.363 152.53C277.538 140.355 286.969 125.718 293.023 109.6V109.6Z" stroke="#515151" stroke-width="1.08" stroke-miterlimit="10"/>
<path d="M296.363 35.5597L148.363 183.56C152.15 184.6 156.01 185.453 159.943 186.12L298.943 47.1697C298.263 43.223 297.403 39.353 296.363 35.5597Z" stroke="#515151" stroke-width="1.08" stroke-miterlimit="10"/>
<path d="M278.103 -2.73029L110.103 165.27C112.863 167.27 115.703 169.13 118.633 170.88L283.713 5.79971C281.963 2.86971 280.083 0.0297143 278.103 -2.73029Z" stroke="#515151" stroke-width="1.08" stroke-miterlimit="10"/>
<path d="M271.903 -10.6703L102.163 159.07C104.723 161.243 107.37 163.31 110.103 165.27L278.103 -2.73029C276.143 -5.47029 274.076 -8.11695 271.903 -10.6703Z" stroke="#515151" stroke-width="1.08" stroke-miterlimit="10"/>
<path d="M292.913 24.8797L137.713 180.08C141.193 181.39 144.713 182.54 148.393 183.53L296.393 35.5297C295.373 31.9297 294.243 28.4097 292.913 24.8797Z" stroke="#515151" stroke-width="1.08" stroke-miterlimit="10"/>
<path d="M265.113 -18.0203L94.813 152.28C97.163 154.65 99.623 156.9 102.163 159.07L271.903 -10.6703C269.733 -13.2103 267.483 -15.6703 265.113 -18.0203Z" stroke="#515151" stroke-width="1.08" stroke-miterlimit="10"/>
<path d="M288.673 14.9797L127.813 175.84C131.033 177.4 134.343 178.84 137.713 180.08L292.913 24.8797C291.633 21.5097 290.243 18.1997 288.673 14.9797Z" stroke="#515151" stroke-width="1.08" stroke-miterlimit="10"/>
<path d="M283.713 5.79971L118.633 170.88C121.613 172.66 124.673 174.326 127.813 175.88L288.673 14.9797C287.153 11.8397 285.5 8.77971 283.713 5.79971Z" stroke="#515151" stroke-width="1.08" stroke-miterlimit="10"/>
</g>
<g clip-path="url(#clip1)">
<path d="M119.768 227.331C93.9689 217.724 70.8715 202.028 52.44 181.579C34.0084 161.13 20.7881 136.532 13.9031 109.877" stroke="#515151" stroke-linecap="round" stroke-linejoin="round"/>
<path d="M245.832 224.413C215.64 237.166 182.43 241.011 150.123 235.494" stroke="#575758" stroke-linecap="round" stroke-linejoin="round"/>
<path d="M10.7213 40.2324C15.4496 10.9454 27.7342 -16.602 46.3623 -39.6904C64.9903 -62.7789 89.3177 -80.61 116.943 -91.4235C144.568 -102.237 174.536 -105.659 203.888 -101.351C233.239 -97.0441 260.96 -85.1563 284.314 -66.8616C307.667 -48.567 325.846 -24.498 337.055 2.96901C348.264 30.4361 352.116 60.3515 348.23 89.7621C344.345 119.173 332.856 147.061 314.898 170.675C296.941 194.289 273.136 212.811 245.832 224.413" stroke="#575758" stroke-linecap="round" stroke-linejoin="round"/>
</g>
<defs>
<clipPath id="clip0">
<rect width="241.94" height="241.94" fill="white" transform="translate(59.2429 -53.5903)"/>
</clipPath>
<clipPath id="clip1">
<rect width="340" height="342.145" fill="white" transform="translate(10.213 -103.693)"/>
</clipPath>
</defs>
</svg>
