<svg width="102" height="80" viewBox="0 0 102 80" fill="none" xmlns="http://www.w3.org/2000/svg">
<g clip-path="url(#clip0)">
<path d="M6.21497 0V10.96" stroke="white" stroke-width="0.39" stroke-miterlimit="10"/>
<path d="M0.734985 5.47998H11.695" stroke="white" stroke-width="0.39" stroke-miterlimit="10"/>
<path d="M36.075 0V10.96" stroke="white" stroke-width="0.39" stroke-miterlimit="10"/>
<path d="M30.595 5.47998H41.545" stroke="white" stroke-width="0.39" stroke-miterlimit="10"/>
<path d="M65.925 0V10.96" stroke="white" stroke-width="0.39" stroke-miterlimit="10"/>
<path d="M60.445 5.47998H71.405" stroke="white" stroke-width="0.39" stroke-miterlimit="10"/>
<path d="M95.785 0V10.96" stroke="white" stroke-width="0.39" stroke-miterlimit="10"/>
<path d="M90.305 5.47998H101.265" stroke="white" stroke-width="0.39" stroke-miterlimit="10"/>
<path d="M6.21497 22.74V33.69" stroke="white" stroke-width="0.39" stroke-miterlimit="10"/>
<path d="M0.734985 28.21H11.695" stroke="white" stroke-width="0.39" stroke-miterlimit="10"/>
<path d="M36.075 22.74V33.69" stroke="white" stroke-width="0.39" stroke-miterlimit="10"/>
<path d="M30.595 28.21H41.545" stroke="white" stroke-width="0.39" stroke-miterlimit="10"/>
<path d="M65.925 22.74V33.69" stroke="white" stroke-width="0.39" stroke-miterlimit="10"/>
<path d="M60.445 28.21H71.405" stroke="white" stroke-width="0.39" stroke-miterlimit="10"/>
<path d="M95.785 22.74V33.69" stroke="white" stroke-width="0.39" stroke-miterlimit="10"/>
<path d="M90.305 28.21H101.265" stroke="white" stroke-width="0.39" stroke-miterlimit="10"/>
<path d="M6.21497 45.47V56.43" stroke="white" stroke-width="0.39" stroke-miterlimit="10"/>
<path d="M0.734985 50.95H11.695" stroke="white" stroke-width="0.39" stroke-miterlimit="10"/>
<path d="M36.075 45.47V56.43" stroke="white" stroke-width="0.39" stroke-miterlimit="10"/>
<path d="M30.595 50.95H41.545" stroke="white" stroke-width="0.39" stroke-miterlimit="10"/>
<path d="M65.925 45.47V56.43" stroke="white" stroke-width="0.39" stroke-miterlimit="10"/>
<path d="M60.445 50.95H71.405" stroke="white" stroke-width="0.39" stroke-miterlimit="10"/>
<path d="M95.785 45.47V56.43" stroke="white" stroke-width="0.39" stroke-miterlimit="10"/>
<path d="M90.305 50.95H101.265" stroke="white" stroke-width="0.39" stroke-miterlimit="10"/>
<path d="M6.21497 68.21V79.16" stroke="white" stroke-width="0.39" stroke-miterlimit="10"/>
<path d="M0.734985 73.69H11.695" stroke="white" stroke-width="0.39" stroke-miterlimit="10"/>
<path d="M36.075 68.21V79.16" stroke="white" stroke-width="0.39" stroke-miterlimit="10"/>
<path d="M30.595 73.69H41.545" stroke="white" stroke-width="0.39" stroke-miterlimit="10"/>
<path d="M65.925 68.21V79.16" stroke="white" stroke-width="0.39" stroke-miterlimit="10"/>
<path d="M60.445 73.69H71.405" stroke="white" stroke-width="0.39" stroke-miterlimit="10"/>
<path d="M95.785 68.21V79.16" stroke="white" stroke-width="0.39" stroke-miterlimit="10"/>
<path d="M90.305 73.69H101.265" stroke="white" stroke-width="0.39" stroke-miterlimit="10"/>
</g>
<defs>
<clipPath id="clip0">
<rect width="100.53" height="79.16" fill="white" transform="translate(0.734985)"/>
</clipPath>
</defs>
</svg>
