<svg width="130" height="50" viewBox="0 0 130 50" fill="none" xmlns="http://www.w3.org/2000/svg">
<g clip-path="url(#clip0)">
<path d="M21.6768 6.64282C9.70789 6.64282 0 16.3507 0 28.3196C0 40.2886 9.70789 49.9958 21.6768 49.9958C33.6457 49.9958 43.3529 40.2892 43.3529 28.3203C43.3529 16.3514 33.6457 6.64347 21.6768 6.64347V6.64282ZM21.5958 13.4433C29.816 13.4433 36.4715 20.0994 36.4715 28.3196C36.4715 36.5398 29.816 43.1953 21.5958 43.1953C13.3756 43.1953 6.69947 36.5398 6.69947 28.3196C6.69947 20.0994 13.3756 13.4433 21.5958 13.4433Z" fill="#5EDFFC"/>
<path d="M49.7895 11.3183V30.2017H53.5544V17.1065L60.2331 30.2017H64.3011V11.3183H60.5375V23.0974L54.364 11.3189H50.5991L49.7895 11.3183ZM72.9035 15.9938C71.9568 15.9924 71.0192 16.1778 70.1444 16.5394C69.2696 16.9011 68.4747 17.4317 67.8053 18.1011C67.1359 18.7704 66.6051 19.5653 66.2434 20.4401C65.8817 21.3149 65.6962 22.2525 65.6975 23.1991C65.6975 27.1855 68.9164 30.4245 72.9035 30.4245C76.8905 30.4245 80.1288 27.1855 80.1288 23.1984C80.1288 19.212 76.8899 15.9938 72.9035 15.9938ZM72.9229 19.4951C74.963 19.4951 76.6068 21.1596 76.6068 23.1984C76.6068 25.2386 74.9624 26.8824 72.9235 26.8824C70.8847 26.8824 69.2195 25.2379 69.2195 23.1984C69.2218 22.2168 69.6127 21.276 70.3069 20.582C71.0011 19.8879 71.9419 19.4971 72.9235 19.4951H72.9229ZM81.1055 16.2995V30.2017H85.1949V24.5585C85.1949 22.5579 85.6314 21.3746 86.3575 20.5171C87.1107 19.6278 87.7726 19.1058 89.7946 19.0793L91.3283 19.1L91.349 25.4581C91.3523 26.4309 91.4009 27.2515 91.6191 27.9504C92.1211 29.5566 93.3419 30.4368 95.7033 30.4368C96.7823 30.4368 97.8341 30.2923 98.8316 29.9251L98.3413 27.1039C97.873 27.2833 97.3147 27.3966 96.8892 27.4005C95.6897 27.4115 95.4132 26.8869 95.4171 25.6324V19.1H98.3614L98.3717 16.2988H95.4171L95.4073 12.3629L92.1055 12.3532L91.3996 16.2988H89.4779C88.864 16.2988 88.3918 16.304 87.9268 16.4219C85.9579 16.918 85.1496 18.3662 84.6528 19.2736L83.498 16.2988L81.1055 16.2995ZM106.045 15.9938C105.098 15.9925 104.161 16.178 103.286 16.5396C102.411 16.9013 101.616 17.432 100.947 18.1013C100.278 18.7706 99.7468 19.5654 99.3852 20.4402C99.0236 21.315 98.8381 22.2525 98.8393 23.1991C98.8393 27.1855 102.058 30.4245 106.045 30.4245C110.031 30.4245 113.27 27.1855 113.27 23.1984C113.27 19.212 110.032 15.9938 106.045 15.9938ZM106.065 19.4951C108.104 19.4951 109.749 21.1596 109.749 23.1984C109.749 25.2386 108.104 26.8824 106.065 26.8824C104.025 26.8824 102.361 25.2379 102.361 23.1984C102.363 22.2167 102.754 21.2758 103.448 20.5818C104.143 19.8877 105.084 19.4969 106.065 19.4951H106.065ZM122.247 15.9938C120.377 16.0035 118.841 16.9037 117.41 18.442L116.62 16.2969H114.232V30.2017H118.22V20.6486C118.628 20.1868 119.549 19.3319 120.729 19.3331C122.228 19.3344 122.772 20.2982 122.773 21.3772L122.794 30.2017H126.862V21.2554C126.865 17.7762 124.841 15.9789 122.247 15.9938ZM127.232 17.9109V16.5819H126.843V16.3059H127.929V16.5819H127.531V17.9109H127.232ZM128.135 17.9109V16.3059H128.567L128.854 17.3688L129.125 16.3066H129.534V17.9109H129.306V16.6615L128.952 17.9109H128.736L128.412 16.6388V17.9109H128.135ZM43.5557 1.70426V3.36424H45.2157V1.70361L43.5557 1.70426ZM43.5557 3.36424H40.4793V5.02356H43.5557V3.36424ZM40.4793 5.02356H38.941V8.2619H40.4793V5.02356ZM40.4793 8.2619V9.84092H42.0583V8.2619H40.4793ZM42.0583 8.2619H43.7986V6.70361H42.0576L42.0583 8.2619ZM40.4793 9.84092H38.941V11.4601H37.342V9.84092H34.7312V10.9938H33.3141V12.4109H34.873V13.9899H33.294L33.3148 12.4109H31.614V14.9005H30.0356V16.4588H28.9631V18.0378H27.8297C25.3918 22.0352 23.4359 25.7282 22.3037 28.4607C19.1969 24.3241 17.7396 22.8344 15.1198 21.3772C14.1833 20.8565 13.3491 20.6142 12.7513 20.9523C12.1302 21.3034 11.9482 22.4122 12.7319 23.2794C17.5959 28.6667 18.4708 31.541 20.2403 35.646C20.7675 36.8701 21.7623 37.3953 22.8918 37.4271C23.4955 37.4439 24.2364 37.2613 24.7332 36.6784C24.9637 36.4083 25.0311 36.0385 25.2189 35.5851C26.6975 32.0203 28.3381 28.4458 30.7047 25.041L30.7241 23.26H31.9793L31.9592 21.6809H33.3148L33.2953 19.7982H34.8737V18.078H33.2746L33.2947 16.4588H34.8737V18.078H36.4521V16.4387H37.6872V14.5158H39.1237V13.2004H40.4793V9.84092ZM37.342 9.84092H38.941V8.2619H37.342V9.84092ZM37.342 8.2619V6.74377H35.7435V8.2619H37.342Z" fill="#E8E8E8"/>
<path d="M40.4793 5.03135H42.055V6.69392H40.4793V5.03135ZM45.2072 3.36879H46.9125V5.03135H45.2072V3.36879ZM45.2072 0.00415039H46.9125V1.70622H45.2072V0.00415039Z" fill="#5EDFFC"/>
<path d="M50.6852 45.1545H49.9339V34.7931H51.1995V38.6234C51.7001 37.9965 52.4015 37.5645 53.1774 37.5885C55.2804 37.6532 56.0576 39.5276 56.0809 41.3385C56.1094 43.5094 54.9158 45.2782 52.9883 45.2983C52.1632 45.3067 51.4443 44.9395 50.9741 44.2504L50.6852 45.1545ZM51.2072 43.5159C51.7241 43.992 51.8238 44.2497 52.8245 44.2588C54.3284 44.2724 54.7144 42.6034 54.7111 41.444C54.7072 39.9822 54.305 38.7303 53 38.6927C52.1781 38.6688 51.6172 39.0749 51.2234 39.5192L51.2072 43.5159ZM57.1749 47.7413L57.34 46.786C58.4022 46.9971 59.169 46.7679 59.5868 45.5969L56.9553 37.7381H58.2726L60.1315 44.0023L61.8873 37.7381H63.1742L60.6179 45.8793C60.0278 47.7588 58.6483 48.0911 57.1749 47.7413ZM67.0485 44.0626L67.6923 43.1733C68.6729 43.8754 69.4112 44.1603 70.6172 44.1655C71.9216 44.172 72.7545 43.4933 72.7474 42.4434C72.7273 39.4945 67.6684 41.148 67.5816 37.2173C67.5434 35.4945 69.0777 34.6461 70.5576 34.6383C71.6748 34.6325 72.7228 34.8015 73.4358 35.3054L72.8788 36.3067C72.544 35.9745 71.3387 35.7523 70.6839 35.7471C69.544 35.7387 68.8238 36.1901 68.7908 37.148C68.6949 39.9667 74.0265 38.4155 74.0174 42.4136C74.0142 44.2776 72.6224 45.2471 70.6133 45.2646C68.7577 45.2808 67.3776 44.4421 67.0485 44.0626ZM82.4028 45.1448V37.7497H83.1832L83.487 38.9557C84.101 38.1383 85.1644 37.593 86.0595 37.5956C87.1172 37.5988 87.5666 38.3443 87.7026 38.8909C88.3697 38.1137 89.2648 37.5956 90.1709 37.5885C91.7318 37.5755 92.0899 38.7141 92.0899 39.9913V45.1448L90.8238 45.1493V40.4C90.8238 39.3598 90.6988 38.685 89.8076 38.7031C88.8199 38.7245 88.294 39.3741 87.9339 39.6953V45.1493H86.6198V40.2594C86.6198 39.2672 86.4585 38.6927 85.6159 38.7109C84.7674 38.729 84.5194 39.0703 83.6968 39.7225V45.15L82.4028 45.1448ZM98.3665 44.2633C97.7117 44.9492 96.8697 45.2782 96.0809 45.2711C94.8238 45.2588 93.805 44.4939 93.8102 43.2504C93.8153 41.7329 94.862 41.3126 95.759 41.0146C96.6437 40.7206 97.3497 40.6189 98.1521 40.479C98.1864 39.1597 97.9073 38.672 96.8283 38.6649C95.8555 38.6584 95.0213 39.1008 94.6618 39.2866L94.2033 38.4408C94.5582 38.1642 95.4513 37.6034 96.9138 37.5904C98.5174 37.5774 99.4734 38.4777 99.474 40.1616L99.476 45.1493H98.6962L98.3665 44.2633ZM98.1625 41.3404C97.3658 41.4958 96.9287 41.6273 96.3037 41.8262C95.5012 42.0807 95.1133 42.4855 95.123 43.2219C95.1327 43.9939 95.6411 44.2912 96.2745 44.2763C97.0323 44.2588 97.5206 44.0107 98.1573 43.5308L98.1625 41.3404ZM112.863 44.1474L113.056 45.0269C112.611 45.2717 111.947 45.2549 111.681 45.2562C110.118 45.2607 109.884 44.2478 109.884 43.093V38.6591H108.78V37.7381H109.884L110.262 35.6299L111.167 35.6267V37.7381H112.832V38.6591H111.167V43.1604C111.167 44.2588 111.625 44.2633 112.056 44.2808C112.47 44.2983 112.862 44.1474 112.862 44.1474H112.863ZM119.291 43.525L119.829 44.2925C119.266 44.7342 118.635 45.2737 117.277 45.2782C115.015 45.2847 114.006 43.5541 114.015 41.4965C114.025 39.446 114.972 37.6021 117.057 37.591C119.649 37.5762 120.014 40.0794 120.013 41.8242H115.387C115.388 43.2258 115.958 44.242 117.125 44.253C118.33 44.264 119.291 43.525 119.291 43.525ZM115.386 40.9376H118.675C118.61 39.7763 118.31 38.5541 117.069 38.5697C115.738 38.5859 115.475 39.8132 115.386 40.9376ZM126.751 44.2918C126.222 44.8048 125.381 45.2497 124.295 45.2575C122.214 45.273 121.189 43.6681 121.189 41.4505C121.188 39.242 122.301 37.5923 124.465 37.5885C125.424 37.5865 126.114 37.9693 126.61 38.3721L126.05 39.2225C125.738 38.9738 125.051 38.628 124.451 38.6364C122.978 38.6571 122.519 39.742 122.523 41.4162C122.526 42.8106 122.835 44.2199 124.444 44.2348C124.923 44.2394 125.501 44.0697 126.123 43.5302L126.751 44.2918ZM75.0032 47.7413L75.1677 46.786C76.2299 46.9971 76.9974 46.7679 77.4151 45.5969L74.783 37.7381H76.101L77.9598 44.0023L79.7156 37.7381H81.0025L78.4462 45.8793C77.8562 47.7588 76.476 48.0911 75.0032 47.7413ZM101.631 45.1448V37.7497H102.411L102.714 38.9557C103.329 38.1383 104.479 37.5872 105.519 37.5956C106.866 37.6066 107.393 38.7938 107.393 40.0425V45.1493H106.079V40.2594C106.079 39.2672 105.917 38.6927 105.075 38.7109C104.227 38.729 103.747 39.0703 102.924 39.7225V45.15L101.631 45.1448Z" fill="#BFB7B7"/>
</g>
<defs>
<clipPath id="clip0">
<rect width="129.534" height="50" fill="white"/>
</clipPath>
</defs>
</svg>
